<svg width="741" height="598" viewBox="0 0 741 598" fill="none" xmlns="http://www.w3.org/2000/svg">
<path d="M421.949 528.307C416.828 521.135 409.895 515.888 401.178 513.924C393.578 512.211 385.762 512.503 378.036 512.563L280.344 513.316C271.977 513.381 263.955 520.629 264.344 529.316C264.73 537.93 271.376 545.385 280.344 545.316C308.961 545.095 337.578 544.875 366.195 544.654C372.941 544.602 379.692 544.48 386.439 544.503C387.954 544.507 389.463 544.587 390.977 544.605C391.343 544.609 391.608 544.605 391.795 544.598C391.842 544.612 391.881 544.625 391.942 544.642C392.732 544.858 393.542 545.008 394.336 545.214C394.058 545.222 394.852 545.717 395.25 545.885C395.305 545.993 395.421 546.184 395.616 546.48C395.888 546.99 396.693 548.539 396.727 548.49C397.936 551.549 398.934 554.687 399.713 557.883C401.573 564.93 401.981 566.403 402.249 573.015C402.587 581.367 409.366 589.412 418.249 589.015C426.628 588.639 434.612 581.972 434.249 573.015C433.638 557.92 430.988 540.965 421.949 528.307Z" fill="#E6E6E6"/>
<path d="M286.087 564.413C284.252 553.293 282.452 542.166 280.581 531.053C278.683 519.779 274.807 509.455 266.033 502.056C263.689 500.079 261.258 498.233 258.817 496.393C257.959 495.746 257.102 495.098 256.254 494.437C256.203 494.398 256.171 494.373 256.127 494.339C256.034 494.258 255.922 494.163 255.772 494.036C252.115 490.941 248.582 487.709 245.216 484.273C242.227 481.221 239.369 478.04 236.641 474.728C235.96 473.901 235.287 473.066 234.623 472.224C234.508 472.079 233.893 471.284 233.488 470.765C233.111 470.246 232.422 469.308 232.306 469.145C231.53 468.047 230.768 466.94 230.02 465.823C224.924 458.187 220.511 450.118 216.833 441.707C216.468 440.873 216.112 440.034 215.765 439.19C215.671 438.932 215.551 438.602 215.391 438.161C214.649 436.123 213.91 434.087 213.232 432.025C211.792 427.644 210.554 423.198 209.518 418.688C209.006 416.461 208.545 414.223 208.135 411.974C207.923 410.817 207.726 409.657 207.542 408.496C207.511 408.303 207.332 407.05 207.226 406.341C207.148 405.63 207.002 404.37 206.982 404.175C206.865 403.004 206.761 401.832 206.671 400.659C206.466 398.019 206.328 395.374 206.256 392.725C206.132 388.018 206.217 383.311 206.508 378.604C206.674 375.959 206.911 373.321 207.202 370.688C207.219 370.527 207.233 370.398 207.246 370.282C207.263 370.164 207.284 370.031 207.308 369.865C207.524 368.41 207.75 366.957 208.004 365.508C208.963 360.009 210.211 354.563 211.743 349.195C212.468 346.656 213.256 344.137 214.106 341.639C214.485 340.531 214.875 339.426 215.278 338.326C215.252 338.397 216.461 335.31 216.477 335.206C221.272 323.877 229.114 313.549 229.125 300.68C229.132 291.966 221.761 283.62 213.125 284.022C208.82 284.184 204.745 286.012 201.76 289.119C198.776 292.226 197.114 296.371 197.125 300.68C197.125 300.875 197.124 301.042 197.124 301.204C197.043 301.476 196.976 301.702 196.915 301.902C195.98 303.934 194.835 305.865 193.808 307.846C190.998 313.27 188.599 318.871 186.32 324.555C182.589 333.81 179.734 343.395 177.791 353.183C173.567 374.629 173.239 396.661 176.823 418.223C183.026 456.036 203.485 492.232 231.926 516.563C234.394 518.674 236.922 520.714 239.475 522.714C240.531 523.541 241.596 524.353 242.666 525.159C243.172 525.541 245.268 527.193 244.346 526.393C246.328 528.084 247.163 528.936 247.672 530.182C247.746 530.47 247.846 530.86 247.983 531.393C248.341 532.798 248.682 534.2 248.965 535.625C251.441 548.077 253.162 560.737 255.23 573.269C256.651 581.88 267.252 587.484 274.912 584.903C283.828 581.899 287.609 573.639 286.087 564.413Z" fill="#E6E6E6"/>
<path d="M423.568 596.708C416.848 596.725 410.396 594.077 405.627 589.343C400.858 584.609 398.161 578.177 398.128 571.458V553.206C379.019 555.345 313.585 554.85 294.828 551.836V570.728C294.778 577.442 292.075 583.864 287.31 588.594C282.544 593.324 276.102 595.978 269.388 595.978C262.673 595.978 256.231 593.324 251.466 588.594C246.7 583.864 243.998 577.442 243.948 570.728V533.636C218.543 519.523 197.365 498.887 182.599 473.856C167.833 448.826 160.013 420.309 159.948 391.248C159.948 341.418 182.531 294.933 221.906 263.714C247.508 243.347 278.614 231.098 311.229 228.541C315.656 228.194 320.11 228.018 324.468 228.018C339.82 228.018 409.086 230.389 426.465 235.389L466.093 196.068C466.676 195.482 467.42 195.083 468.23 194.921C469.04 194.76 469.881 194.843 470.643 195.161C471.412 195.467 472.07 195.998 472.531 196.684C472.992 197.371 473.235 198.181 473.228 199.008V205.26L480.944 197.617C481.526 197.031 482.269 196.631 483.079 196.469C483.889 196.308 484.728 196.391 485.49 196.709C486.26 197.015 486.918 197.546 487.38 198.233C487.842 198.919 488.085 199.73 488.078 200.557V270.422C507.963 288.349 523.118 310.903 532.202 336.088C541.285 361.272 544.016 388.308 540.151 414.8C536.287 441.292 525.948 466.422 510.049 487.962C494.151 509.503 473.184 526.789 449.008 538.288V571.458C448.975 578.177 446.278 584.609 441.509 589.343C436.739 594.077 430.287 596.725 423.568 596.708V596.708ZM400.128 550.938V571.458C400.178 577.641 402.67 583.554 407.06 587.909C411.451 592.264 417.384 594.707 423.568 594.707C429.751 594.707 435.685 592.264 440.075 587.909C444.465 583.554 446.957 577.641 447.008 571.458V537.025L447.579 536.754C474.706 523.881 497.735 503.742 514.109 478.572C534.974 446.454 543.651 407.927 538.571 369.965C533.49 332.003 514.987 297.114 486.41 271.612L486.078 271.314V200.557C486.085 200.127 485.96 199.706 485.72 199.349C485.48 198.992 485.137 198.717 484.736 198.562C484.338 198.391 483.897 198.345 483.472 198.43C483.047 198.514 482.658 198.725 482.355 199.035L471.228 210.055V199.008C471.235 198.578 471.11 198.156 470.87 197.799C470.63 197.442 470.287 197.168 469.886 197.012C469.487 196.842 469.045 196.796 468.62 196.881C468.194 196.966 467.804 197.178 467.501 197.488L427.024 237.652L426.449 237.472C410.293 232.415 339.936 230.018 324.467 230.018C320.162 230.018 315.76 230.192 311.386 230.535C279.167 233.061 248.439 245.161 223.149 265.281C184.255 296.119 161.947 342.032 161.947 391.248C162.014 420.052 169.792 448.313 184.472 473.094C199.153 497.876 220.202 518.275 245.432 532.173L245.948 532.458V570.728C245.999 576.911 248.491 582.823 252.882 587.177C257.272 591.53 263.205 593.973 269.388 593.973C275.571 593.973 281.503 591.53 285.894 587.177C290.284 582.823 292.776 576.911 292.828 570.728V549.442L294.013 549.665C310.868 552.836 381.845 553.336 398.998 551.086L400.128 550.938Z" fill="#3F3D56"/>
<path d="M287.998 119.118L177.258 152.398C173.735 153.46 170.779 155.878 169.038 159.119C167.297 162.36 166.914 166.16 167.973 169.683C169.031 173.207 171.446 176.166 174.685 177.91C177.924 179.655 181.723 180.042 185.248 178.988L282.158 149.858L284.188 149.248C284.599 138.786 287.437 128.564 292.478 119.388C291.845 119.103 291.169 118.927 290.478 118.868C289.643 118.787 288.8 118.872 287.998 119.118Z" fill="#49AA26"/>
<path d="M183.333 186.083C181.863 186.079 180.431 185.614 179.24 184.752C178.049 183.891 177.158 182.677 176.695 181.282L169.77 160.386C169.481 159.513 169.366 158.592 169.433 157.675C169.5 156.758 169.747 155.864 170.159 155.042C170.572 154.221 171.142 153.488 171.838 152.887C172.533 152.286 173.341 151.828 174.213 151.539L264.345 121.669C265.217 121.38 266.138 121.265 267.055 121.332C267.972 121.399 268.866 121.645 269.688 122.058C270.509 122.47 271.242 123.04 271.843 123.736C272.444 124.431 272.902 125.238 273.191 126.111L280.116 147.007C280.692 148.726 280.577 150.601 279.794 152.236C279.011 153.871 277.623 155.137 275.923 155.766C275.84 155.797 275.756 155.827 275.671 155.855L185.542 185.724C184.829 185.961 184.083 186.082 183.333 186.083Z" fill="#2F2E41"/>
<path d="M352.128 82.0078C333.937 82.0148 316.462 89.1 303.403 101.764C290.343 114.427 282.724 131.676 282.157 149.858C282.137 150.568 282.128 151.288 282.128 152.008C282.128 165.853 286.233 179.386 293.925 190.898C301.616 202.409 312.549 211.381 325.34 216.679C338.131 221.978 352.205 223.364 365.784 220.663C379.363 217.962 391.835 211.295 401.625 201.505C411.415 191.716 418.082 179.243 420.783 165.664C423.484 152.085 422.097 138.011 416.799 125.22C411.501 112.429 402.529 101.497 391.018 93.8049C379.506 86.1132 365.972 82.0078 352.128 82.0078V82.0078ZM352.128 220.008C334.099 219.989 316.814 212.819 304.065 200.07C291.317 187.322 284.146 170.037 284.128 152.008C284.128 151.078 284.148 150.158 284.188 149.248C284.729 135.928 289.174 123.06 296.97 112.246C304.766 101.432 315.568 93.1479 328.035 88.424C340.501 83.7001 354.08 82.7448 367.085 85.6769C380.09 88.6089 391.946 95.299 401.179 104.915C410.412 114.532 416.615 126.65 419.016 139.763C421.417 152.876 419.91 166.406 414.683 178.67C409.457 190.933 400.74 201.39 389.618 208.74C378.496 216.09 365.459 220.008 352.128 220.008V220.008Z" fill="#3F3D56"/>
<path d="M411.128 152.008C411.128 167.655 404.912 182.662 393.847 193.727C382.782 204.792 367.775 211.008 352.128 211.008C336.48 211.008 321.473 204.792 310.408 193.727C299.344 182.662 293.128 167.655 293.128 152.008C293.128 150.138 293.218 148.298 293.387 146.478C294.809 131.376 301.993 117.402 313.446 107.457C324.9 97.5125 339.744 92.3612 354.896 93.0728C370.048 93.7845 384.343 100.304 394.814 111.279C405.285 122.253 411.128 136.839 411.128 152.008V152.008Z" fill="#E6E6E6"/>
<path d="M369.698 155.928C368.267 154.047 366.386 152.558 364.228 151.598C361.566 150.476 358.816 149.573 356.008 148.898V132.838C360.325 133.489 364.375 135.335 367.698 138.168L370.958 131.218C369.083 129.547 366.93 128.217 364.597 127.288C362.012 126.241 359.298 125.544 356.528 125.218V117.078H348.978V125.298C346.062 125.625 343.25 126.569 340.728 128.068C338.449 129.416 336.531 131.296 335.137 133.548C333.807 135.745 333.118 138.27 333.148 140.838C333.018 143.621 333.824 146.367 335.438 148.638C336.923 150.604 338.885 152.159 341.137 153.158C343.842 154.313 346.639 155.239 349.498 155.928V171.318C344.403 170.933 339.548 168.996 335.588 165.768L332.328 172.728C334.542 174.558 337.06 175.987 339.768 176.948C342.735 178.009 345.834 178.655 348.978 178.868V186.938H356.528V178.718C360.721 178.259 364.654 176.456 367.738 173.578C369.096 172.275 370.168 170.705 370.888 168.966C371.608 167.228 371.958 165.359 371.918 163.478C372.043 160.783 371.261 158.125 369.698 155.928V155.928ZM349.498 147.198C347.659 146.64 345.949 145.722 344.468 144.498C343.881 143.975 343.417 143.33 343.109 142.607C342.801 141.884 342.657 141.103 342.688 140.318C342.633 138.537 343.288 136.807 344.508 135.508C345.86 134.145 347.605 133.239 349.498 132.918V147.198ZM360.748 168.478C359.472 169.786 357.811 170.652 356.008 170.948V157.708C357.731 158.17 359.344 158.976 360.748 160.078C361.28 160.532 361.703 161.101 361.985 161.742C362.267 162.382 362.401 163.078 362.378 163.778C362.447 165.494 361.865 167.173 360.748 168.478V168.478Z" fill="#49AA26"/>
<path d="M186.547 270.772C185.001 270.769 183.499 270.257 182.274 269.314C181.049 268.371 180.17 267.05 179.772 265.556L176.002 251.286C175.53 249.492 175.788 247.585 176.721 245.982C177.654 244.379 179.184 243.211 180.977 242.735L299.917 211.305C301.712 210.837 303.619 211.098 305.222 212.032C306.824 212.967 307.992 214.498 308.468 216.29L311.662 228.38L311.064 228.427C280.559 230.798 251.372 241.858 226.956 260.298L226.783 260.382L188.323 270.541C187.743 270.694 187.146 270.772 186.547 270.772V270.772Z" fill="#2F2E41"/>
<path d="M166.848 341.258C152.895 339.197 139.552 334.152 127.726 326.466C121.867 322.661 116.443 318.225 111.552 313.238C106.724 308.313 102.105 302.717 99.7139 296.159C97.4132 290.091 97.5317 283.372 100.045 277.389C102.524 271.443 107.26 266.723 113.214 264.264C119.204 261.875 126.44 261.62 132.269 264.236C135.047 265.453 137.451 267.388 139.234 269.841C140.062 270.973 140.676 272.246 141.044 273.6C141.385 274.826 141.416 276.118 141.134 277.359C140.793 278.598 140.19 279.749 139.366 280.736C138.543 281.724 137.518 282.523 136.36 283.082C133.813 284.389 131.052 285.231 128.208 285.568C125.348 285.958 121.24 286.313 118.94 284.017C118.467 283.563 118.095 283.014 117.848 282.406C117.675 281.941 117.616 281.441 117.675 280.948C117.642 281.165 117.814 280.476 117.804 280.503C117.768 280.605 117.61 280.854 117.834 280.472C117.904 280.346 117.982 280.225 118.067 280.109C117.991 280.207 117.824 280.371 118.123 280.09C118.369 279.82 118.685 279.625 119.037 279.525C119.175 279.485 119.316 279.453 119.454 279.415C119.807 279.319 119.103 279.42 119.464 279.409C119.603 279.404 119.744 279.408 119.883 279.401C120.237 279.385 119.533 279.305 119.873 279.39C120.004 279.423 120.135 279.456 120.265 279.497C120.547 279.585 120.065 279.29 120.256 279.511C120.48 279.77 120.021 279.259 120.276 279.51C120.402 279.634 120.522 279.766 120.633 279.904C121.075 280.34 121.67 280.584 122.291 280.584C122.911 280.584 123.507 280.34 123.948 279.904C124.375 279.458 124.613 278.864 124.613 278.247C124.613 277.629 124.375 277.036 123.948 276.589C121.637 273.724 117.071 274.432 114.733 276.853C111.751 279.942 112.932 284.837 115.832 287.531C119.116 290.582 123.767 290.794 127.991 290.283C131.561 289.941 135.039 288.958 138.26 287.381C141.46 285.808 143.963 283.104 145.284 279.792C145.88 278.025 146.095 276.151 145.912 274.295C145.73 272.438 145.156 270.641 144.228 269.024C140.498 262.012 132.776 258.418 125.143 257.795C121.213 257.487 117.262 257.962 113.516 259.191C109.771 260.421 106.307 262.381 103.324 264.958C97.5754 270.134 94.0353 277.321 93.4362 285.033C92.7699 293.029 95.8723 300.794 100.395 307.247C105.131 313.804 110.781 319.648 117.175 324.601C129.674 334.58 144.336 341.494 159.987 344.791C161.848 345.176 163.72 345.505 165.602 345.779C166.2 345.924 166.832 345.835 167.367 345.531C167.903 345.227 168.303 344.73 168.485 344.142C168.646 343.542 168.564 342.904 168.258 342.364C167.951 341.825 167.445 341.427 166.848 341.258L166.848 341.258Z" fill="#3F3D56"/>
<path d="M390.233 239.382C369.791 239.094 349.413 239.612 329.1 240.938C322.157 241.392 316.149 243.846 316.149 247.97C316.149 251.419 322.109 255.459 329.1 255.002C349.403 253.677 369.781 253.158 390.233 253.446C406.907 253.681 406.897 239.617 390.233 239.382Z" fill="#CCCCCC"/>
<path d="M360.019 252.75C357.81 252.75 305.914 252.667 305.914 245.499C305.914 238.331 357.81 238.248 360.019 238.248C362.229 238.248 414.125 238.331 414.125 245.499C414.125 252.667 362.229 252.75 360.019 252.75ZM307.943 245.499C309.363 247.672 328.439 250.75 360.019 250.75C391.599 250.75 410.675 247.672 412.096 245.499C410.676 243.326 391.599 240.248 360.019 240.248C328.439 240.248 309.363 243.326 307.943 245.499V245.499Z" fill="#3F3D56"/>
<path d="M524.673 441.2C536.162 440.881 550.459 440.482 561.474 432.436C564.754 429.941 567.449 426.76 569.37 423.115C571.291 419.469 572.392 415.448 572.595 411.332C572.82 404.978 570.524 399.431 566.13 395.718C560.377 390.857 551.976 389.717 542.922 392.377L552.302 323.829L545.417 322.886L534.39 403.473L540.14 400.834C546.806 397.776 555.957 396.22 561.643 401.026C563.04 402.282 564.128 403.844 564.822 405.589C565.517 407.334 565.8 409.216 565.649 411.088C565.481 414.151 564.654 417.142 563.226 419.857C561.799 422.572 559.803 424.948 557.374 426.823C548.802 433.084 537.406 433.892 524.48 434.253L524.673 441.2Z" fill="#3F3D56"/>
<path d="M505.635 329.741H468.203V336.691H505.635V329.741Z" fill="#3F3D56"/>
<path d="M203.485 302.738C201.819 302.732 200.209 302.134 198.944 301.05C197.679 299.965 196.841 298.466 196.581 296.82L194.296 282.239C194.011 280.405 194.465 278.532 195.558 277.033C196.652 275.533 198.295 274.528 200.129 274.239L321.66 255.197C323.494 254.911 325.366 255.365 326.866 256.458C328.365 257.552 329.37 259.195 329.659 261.029L331.944 275.611C332.229 277.444 331.775 279.317 330.682 280.816C329.589 282.316 327.945 283.321 326.112 283.61L204.58 302.652C204.218 302.709 203.852 302.737 203.485 302.738Z" fill="#2F2E41"/>
<path d="M153.189 131.854C181.356 131.854 204.189 109.021 204.189 80.8545C204.189 52.688 181.356 29.8545 153.189 29.8545C125.023 29.8545 102.189 52.688 102.189 80.8545C102.189 109.021 125.023 131.854 153.189 131.854Z" fill="#49AA26"/>
<path d="M182.065 94.0505C183.695 93.4804 185.184 92.5679 186.432 91.3743C187.257 90.5234 187.887 89.5022 188.276 88.3823C188.666 87.2625 188.806 86.071 188.686 84.8913C188.617 84.0506 188.354 83.2372 187.918 82.5148C187.483 81.7925 186.886 81.1807 186.174 80.7272C184.329 79.5922 181.89 79.635 179.427 80.7765L179.143 60.8687L177.143 60.8971L177.477 84.3009L179 83.3025C180.765 82.1466 183.301 81.3084 185.126 82.4309C185.578 82.7281 185.954 83.1253 186.227 83.5918C186.5 84.0583 186.662 84.5814 186.699 85.1204C186.783 85.9992 186.677 86.8859 186.388 87.72C186.099 88.5541 185.633 89.3161 185.023 89.9541C182.855 92.1052 179.646 92.826 175.984 93.4852L176.338 95.4534C178.285 95.1577 180.202 94.6882 182.065 94.0505V94.0505Z" fill="#2F2E41"/>
<path d="M199.737 59.4716L189.087 61.0845L189.386 63.0617L200.036 61.4488L199.737 59.4716Z" fill="#2F2E41"/>
<path d="M166.12 64.5614L155.47 66.1743L155.769 68.1515L166.42 66.5386L166.12 64.5614Z" fill="#2F2E41"/>
<path d="M186.892 301.846C185.058 301.842 183.269 301.28 181.762 300.234C180.255 299.188 179.103 297.708 178.458 295.991L143.295 201.822C138.997 190.273 139.456 177.49 144.571 166.279C149.686 155.068 159.039 146.343 170.579 142.02L199.171 131.343C200.276 130.928 201.453 130.735 202.634 130.776C203.814 130.817 204.975 131.091 206.049 131.582C207.12 132.061 208.086 132.748 208.888 133.604C209.691 134.461 210.315 135.468 210.724 136.568L275.861 259.552C276.284 260.661 276.483 261.843 276.447 263.029C276.412 264.215 276.142 265.383 275.654 266.465C275.165 267.546 274.467 268.521 273.601 269.332C272.734 270.143 271.716 270.774 270.604 271.19L190.038 301.274C189.032 301.651 187.967 301.845 186.892 301.846Z" fill="#2F2E41"/>
<path d="M190.496 134.582L255.125 221.008L211.393 135.489C211.032 134.492 210.478 133.575 209.762 132.791C209.047 132.008 208.184 131.373 207.223 130.923C206.262 130.473 205.222 130.216 204.161 130.168C203.101 130.12 202.042 130.282 201.044 130.643L190.496 134.582Z" fill="#E6E6E6"/>
<path d="M292.828 200.218L177.433 192.784C175.614 192.667 173.836 192.193 172.2 191.389C170.565 190.584 169.103 189.466 167.9 188.097C166.697 186.728 165.775 185.135 165.187 183.41C164.599 181.685 164.357 179.86 164.474 178.042C164.591 176.223 165.066 174.445 165.87 172.809C166.674 171.173 167.793 169.712 169.162 168.509C170.531 167.306 172.123 166.384 173.849 165.796C175.574 165.208 177.398 164.966 179.217 165.083L294.612 172.515C295.464 172.57 296.297 172.792 297.063 173.169C297.829 173.546 298.513 174.069 299.077 174.711C299.64 175.352 300.072 176.097 300.347 176.905C300.623 177.713 300.736 178.568 300.681 179.42L299.733 194.149C299.622 195.869 298.832 197.475 297.537 198.613C296.242 199.751 294.548 200.328 292.828 200.218Z" fill="#49AA26"/>
<path d="M261.993 204.983C261.84 204.983 261.688 204.978 261.535 204.968H261.534L166.778 198.865C165.861 198.806 164.964 198.567 164.139 198.161C163.314 197.755 162.577 197.191 161.97 196.501C161.363 195.81 160.898 195.007 160.602 194.137C160.306 193.267 160.183 192.347 160.243 191.43L161.863 166.271C161.922 165.354 162.161 164.457 162.567 163.632C162.973 162.807 163.537 162.071 164.227 161.464C164.918 160.857 165.721 160.392 166.591 160.095C167.461 159.799 168.381 159.677 169.299 159.736L264.055 165.839C265.907 165.961 267.635 166.811 268.86 168.205C270.085 169.599 270.707 171.422 270.59 173.274L268.97 198.433C268.881 199.781 268.404 201.075 267.598 202.159C266.792 203.243 265.689 204.071 264.424 204.544C263.646 204.835 262.823 204.983 261.993 204.983V204.983Z" fill="#2F2E41"/>
<path d="M152.605 46.9405C159.314 41.1702 168.527 46.3321 176.221 45.4285C183.583 44.5639 189.395 37.9609 190.88 30.9461C192.612 22.7621 188.364 14.5629 182.103 9.46034C175.246 3.87176 166.151 2.26741 157.533 3.30134C147.655 4.48634 138.622 9.09069 130.516 14.6599C122.692 19.869 115.497 25.9659 109.074 32.8291C103.323 39.1807 98.4506 46.7517 96.8946 55.2988C95.4806 63.0663 96.5603 71.6738 101.152 78.254C103.587 81.6266 106.85 84.3148 110.626 86.0592C114.564 87.9927 118.764 89.3749 122.578 91.5609C128.346 94.8662 133.952 101.72 132.145 108.852C131.758 110.41 130.993 111.849 129.919 113.042C128.629 114.475 126.301 112.581 127.595 111.145C129.867 108.622 129.778 105.257 128.567 102.245C127.126 98.8502 124.576 96.0456 121.333 94.2903C117.34 92.0073 112.932 90.5982 108.839 88.5187C104.922 86.6191 101.522 83.8013 98.9277 80.3049C94.0295 73.4979 92.5643 64.639 93.6752 56.4439C94.8774 47.5755 99.4339 39.5167 105.146 32.7634C111.362 25.414 118.998 19.1929 126.798 13.6041C135.168 7.60721 144.416 2.53729 154.648 0.70358C163.519 -0.88596 173.133 0.0926609 180.89 4.92651C188.13 9.4386 193.682 17.2003 194.234 25.8732C194.432 29.8194 193.576 33.7471 191.752 37.2521C189.928 40.7572 187.203 43.7129 183.858 45.8153C180.425 47.8695 176.434 48.794 172.448 48.4586C168.186 48.1858 163.921 46.8808 159.632 47.2431C157.691 47.3609 155.842 48.1082 154.364 49.3716C152.898 50.6324 151.151 48.1909 152.605 46.9405V46.9405Z" fill="#2F2E41"/>
</svg>
