<?xml version="1.0" encoding="UTF-8" standalone="no"?>
<!DOCTYPE svg PUBLIC "-//W3C//DTD SVG 1.1//EN" "http://www.w3.org/Graphics/SVG/1.1/DTD/svg11.dtd">
<svg width="100%" height="100%" viewBox="0 0 2732 2048" version="1.1" xmlns="http://www.w3.org/2000/svg" xmlns:xlink="http://www.w3.org/1999/xlink" xml:space="preserve" xmlns:serif="http://www.serif.com/" style="fill-rule:evenodd;clip-rule:evenodd;stroke-linejoin:round;stroke-miterlimit:2;">
    <g transform="matrix(1,0,0,1,38.2908,2.29616)">
        <g id="_4---BUDGETTING" serif:id="4 - BUDGETTING">
            <path id="MANS-CHAIR-" serif:id="MANS CHAIR " d="M634.793,1430.18L990.264,1430.18L990.264,1461.89L646.349,1461.89L732.667,1704.91L700.229,1704.91L476.799,1089.25L506.589,1078.39L634.793,1430.18Z"/>
            <g id="MAN">
                <g>
                    <path d="M374.466,1669C374.466,1669 378.848,1463.21 382.203,1305.66C384.35,1204.76 463.832,1122.53 564.601,1116.96C787.268,1104.53 1007.09,1101.37 1222.38,1112.94C1326.95,1118.58 1413.3,1196.66 1429.39,1300.14C1429.45,1300.13 1429.45,1300.13 1429.45,1300.13C1438.26,1356.73 1422.88,1414.42 1387.06,1459.12C1341.61,1515.63 1264.87,1594.36 1146.05,1669.46C1146.05,1669.46 1189.99,1682.16 1194.48,1701.79C1194.48,1701.79 860.154,1701.4 774.951,1701.31C771.812,1701.3 768.998,1699.37 767.864,1696.44C766.73,1693.52 767.509,1690.19 769.825,1688.08C829.678,1633.37 1055.08,1427.35 1055.08,1427.35L674.879,1431.21C674.879,1431.21 668.772,1643.76 667.337,1693.69C667.171,1699.47 662.412,1704.07 656.624,1704.03C599.483,1703.63 326.612,1701.76 326.612,1701.76C326.612,1701.76 324.731,1681.81 374.466,1669Z" style="fill:url(#_Linear1);"/>
                    <path d="M1235.26,1606.82L944.216,1528.68L952.972,1520.67L1245.05,1599.09C1241.83,1601.66 1238.57,1604.24 1235.26,1606.82ZM672.427,1516.55L377.561,1523.67L377.774,1513.66L672.715,1506.54L672.427,1516.55Z" style="fill:rgb(130,181,178);"/>
                    <path d="M1054.59,1427.79L1158.04,1427.55C1159.03,1427.55 1159.87,1428.27 1160.02,1429.25C1160.17,1430.23 1159.59,1431.17 1158.64,1431.47L994.355,1482.85L1054.59,1427.79ZM674.87,1431.51L673.531,1478.13L586.271,1438.85C584.581,1438.09 583.653,1436.25 584.043,1434.44C584.434,1432.62 586.038,1431.33 587.891,1431.34L674.87,1431.51Z" style="fill:rgb(52,104,100);"/>
                </g>
                <g>
                    <path d="M1180.33,683.486C1180.33,683.486 1079.86,547.831 853.849,607.077C823.413,615.056 582.341,691.567 487.242,906.531C477.943,927.551 427.805,1023.12 500.491,1074.21C551.205,1109.87 605.585,1103.26 796.132,1039.49C812.256,1034.09 911.578,1013.11 893.622,990.172C893.622,990.172 901.636,991.794 905.484,986.461C905.484,986.461 905.924,989.209 906.25,991.24C906.472,992.628 907.128,993.91 908.124,994.902C912.679,999.443 926.36,1013.08 934.966,1021.66C936.446,1023.13 938.608,1023.69 940.616,1023.11C942.624,1022.54 944.162,1020.92 944.634,1018.88C947.175,1007.94 950.876,992.003 950.876,992.003C950.876,992.003 1041.27,1011.62 1095.75,923.534C1095.75,923.534 1098.02,1010.54 1165.37,1045.66C1185.04,1055.92 1294.26,1077.71 1322.92,965.069C1342.96,886.281 1357.6,745.501 1370.41,644.351C1370.41,644.351 1437.34,602.336 1442.4,582.212C1444.22,574.984 1436.88,563.112 1420.52,575.118C1420.52,575.118 1444.95,554.345 1436.8,544.556C1432.26,539.111 1422.97,538.826 1404.57,554.581C1404.57,554.581 1427.49,531.107 1417.02,521.713C1405.76,511.624 1392.69,532.375 1380.71,543.545C1380.71,543.545 1407.37,502.609 1392.29,495.54C1385.9,492.545 1379,492.168 1355.73,521.472C1334.18,548.609 1303.62,551.409 1281.47,548.747C1281.47,548.747 1290.19,497.618 1280.2,492.664C1268.92,487.066 1258.75,497.074 1234.24,547.352C1210.04,596.97 1197.97,646.132 1180.33,683.486Z" style="fill:url(#_Linear2);"/>
                    <path d="M914.387,595.248C1089.16,573.283 1172.25,673.194 1179.77,682.757C1168.37,723.423 1148.82,810.298 1148.82,810.298L1128.25,810.01C1128.58,860.773 1095.85,921.443 1095.85,921.443L1095.72,923.578C1043.92,1007.28 958.527,993.399 950.463,992.2L953.098,978.963L946.252,959.758L944.123,954.317C944.123,954.317 953.568,941.658 961.936,930.442C968.996,920.978 967.347,907.631 958.195,900.17C939.893,885.25 912.788,863.154 912.788,863.154C912.63,863.033 912.473,862.912 912.317,862.793C890.543,846.134 863.029,838.837 835.862,842.517C778.288,850.314 662.531,865.994 662.531,865.994L592.644,757.94C674.178,679.281 769.816,636.418 820.746,617.821L914.387,595.248Z" style="fill:rgb(130,181,178);"/>
                    <g>
                        <path d="M905.516,986.661C907.466,984.29 913.911,975.34 908.131,966.701L899.996,956.865C899.996,956.865 911.407,958.511 916.044,958.07C916.044,958.07 915.407,969.494 924.842,971.48C927.423,972.015 930.086,971.049 931.724,968.983C936.276,963.264 946.472,950.408 946.472,950.408C946.472,950.408 952.157,974.943 953.185,979.38C953.289,979.83 953.292,980.298 953.192,980.749C952.255,984.986 947.291,1007.44 947.291,1007.44L944.634,1018.88C944.162,1020.92 942.624,1022.54 940.616,1023.11C938.608,1023.69 936.446,1023.13 934.966,1021.66C926.36,1013.08 912.679,999.443 908.124,994.902C907.128,993.91 906.472,992.628 906.25,991.24L905.516,986.661ZM865.224,842.514C865.224,842.514 901.436,847.818 924.673,873.582L908.664,796.322L855.616,796.629L865.224,842.514Z" style="fill:rgb(255,191,47);"/>
                        <path d="M947.568,1006.19L947.291,1007.44L944.634,1018.88C944.162,1020.92 942.624,1022.54 940.616,1023.11C938.608,1023.69 936.446,1023.13 934.966,1021.66L922.79,1009.52L947.568,1006.19ZM911.619,958.07C913.326,958.16 914.893,958.18 916.044,958.07C916.044,958.07 915.407,969.494 924.842,971.48C925.867,971.692 926.904,971.668 927.886,971.432L929.354,978.259L951.437,971.834L953.185,979.38C953.239,979.613 953.265,979.85 953.265,980.087L907.161,993.688C906.701,992.945 906.39,992.113 906.25,991.24L905.516,986.661C905.866,986.236 906.36,985.6 906.902,984.791L916.771,981.92L911.619,958.07ZM888.081,849.106L876.72,796.507L890.251,796.429L903.148,856.4C897.975,853.395 892.833,851 888.081,849.106Z"/>
                    </g>
                    <path d="M895.559,997.646L865.14,995.214C862.939,995.038 861.295,993.109 861.471,990.908C861.647,988.708 863.576,987.064 865.777,987.24L900.042,989.978C896.754,990.806 893.622,990.172 893.622,990.172C895.596,992.693 896.153,995.191 895.559,997.646ZM909.338,959.925C909.618,959.715 909.932,959.539 910.274,959.405C910.274,959.405 914.106,957.902 918.189,956.3C922.998,954.414 926.569,950.28 927.735,945.248C927.735,945.247 927.735,945.247 927.735,945.246C930.114,934.983 925.831,924.326 917.01,918.565C906.991,912.02 896.268,905.015 896.268,905.015C894.42,903.808 893.899,901.327 895.107,899.479C896.314,897.631 898.795,897.11 900.643,898.318L920.593,911.349L921.127,906.814C921.385,904.621 923.375,903.051 925.567,903.309C927.76,903.567 929.33,905.557 929.072,907.749L927.926,917.477C935.01,925.375 938.004,936.375 935.529,947.052C935.529,947.053 935.529,947.053 935.528,947.054C933.767,954.654 928.374,960.899 921.11,963.748C917.027,965.349 913.195,966.852 913.195,966.852C911.77,967.411 910.217,967.095 909.129,966.164C908.118,966.919 906.767,967.185 905.479,966.76L871.349,955.5C869.252,954.808 868.112,952.545 868.804,950.448C869.495,948.352 871.759,947.211 873.855,947.903L907.986,959.163C908.498,959.332 908.953,959.594 909.338,959.925ZM1150.23,766.482C1150.23,766.482 1121.09,888.67 1114.7,943.241C1114.44,945.433 1116.01,947.422 1118.21,947.679C1120.4,947.936 1122.39,946.364 1122.64,944.172C1129.01,889.886 1158.02,768.339 1158.02,768.339C1158.53,766.192 1157.2,764.032 1155.05,763.52C1152.91,763.008 1150.75,764.335 1150.23,766.482ZM684.048,849.984C614.675,865.534 572.288,878.743 551.686,890.212C549.275,891.554 548.407,894.601 549.75,897.012C551.092,899.424 554.139,900.291 556.55,898.949C576.726,887.718 618.295,874.971 686.236,859.742C688.928,859.139 690.625,856.462 690.021,853.77C689.417,851.077 686.741,849.381 684.048,849.984ZM1371.65,643.558C1370.84,644.076 1370.41,644.351 1370.41,644.351C1369.48,651.674 1368.54,659.205 1367.6,666.903L1347.08,661.506C1346.3,661.3 1345.72,660.641 1345.62,659.838C1345.51,659.036 1345.9,658.249 1346.6,657.848L1371.65,643.558ZM1438.1,546.898C1441.47,557.306 1420.52,575.118 1420.52,575.118C1421.12,574.677 1421.71,574.269 1422.28,573.892C1407.67,587.286 1387.94,603.178 1368.89,611.563C1366.87,612.453 1364.51,611.535 1363.62,609.514C1362.73,607.494 1363.65,605.131 1365.67,604.242C1397.74,590.124 1431.75,553.863 1438.1,546.898ZM1419.75,528.375C1419.57,539.217 1404.57,554.581 1404.57,554.581C1405.67,553.631 1406.75,552.739 1407.8,551.904C1393.08,566.058 1371.76,584.764 1353.03,594.275C1351.06,595.275 1348.65,594.488 1347.65,592.52C1346.65,590.551 1347.44,588.142 1349.41,587.142C1379.62,571.8 1416.71,531.701 1419.75,528.375ZM1395.32,513.6C1391.25,527.369 1380.71,543.545 1380.71,543.545C1381.04,543.241 1381.37,542.93 1381.69,542.614C1369.49,555.382 1353.02,569.36 1334.49,576.389C1332.42,577.171 1330.11,576.131 1329.33,574.067C1328.55,572.003 1329.59,569.691 1331.65,568.908C1363.64,556.777 1389.02,522.641 1395.32,513.6Z" style="fill:rgb(130,181,178);"/>
                    <path d="M785.188,849.38L816.115,816.547C817.507,815.07 819.665,814.602 821.543,815.372C823.422,816.141 824.632,817.988 824.587,820.018L824.057,844.116L785.188,849.38ZM1128.18,814.955C1128.09,810.595 1127.47,784.792 1124.81,767.086C1124.61,766.249 1125.07,765.395 1125.88,765.095C1126.68,764.795 1127.59,765.144 1127.98,765.909C1133.76,776.918 1142.54,794.769 1147.57,810.28L1128.25,810.01C1128.26,811.649 1128.23,813.299 1128.18,814.955Z" style="fill:rgb(52,104,100);"/>
                </g>
                <g>
                    <g transform="matrix(1.01592,0,0,1.01932,-17.6908,-9.9515)">
                        <circle cx="910.065" cy="487.928" r="76.828" style="fill:rgb(153,195,192);"/>
                    </g>
                    <path d="M854.975,545.882C838.925,531.531 828.813,510.642 828.813,487.402C828.813,444.18 863.787,409.09 906.864,409.09C933.249,409.09 956.594,422.254 970.726,442.391L906.805,499.542C906.039,497.29 904.869,495.094 903.289,493.074C896.611,484.537 885.12,482.353 877.645,488.2C870.17,494.047 869.523,505.725 876.201,514.262C878.276,516.915 880.815,518.954 883.555,520.33L854.975,545.882Z"/>
                </g>
            </g>
            <g id="TICKET-NOTE" serif:id="TICKET NOTE" transform="matrix(0.925945,0,0,0.925945,133.563,52.6991)">
                <g transform="matrix(0.836076,0,0.29029,1,60.6403,-2.26609)">
                    <rect x="1757.08" y="618.191" width="77.041" height="93.557" style="fill:white;"/>
                </g>
                <g transform="matrix(0.836076,0,0.29029,1,60.6403,-2.26609)">
                    <path d="M1759.73,709.614L1784.05,709.614C1785.45,709.614 1786.27,710.57 1785.86,711.748C1785.45,712.926 1783.97,713.882 1782.56,713.882L1756.33,713.882C1755.2,713.882 1754.42,713.255 1754.42,712.343L1754.42,618.786C1754.42,618.141 1754.81,617.446 1755.48,616.91C1756.15,616.373 1757.01,616.057 1757.82,616.057L1811.86,616.057C1813.27,616.057 1814.08,617.013 1813.67,618.191C1813.26,619.369 1811.79,620.325 1810.38,620.325L1759.73,620.325L1759.73,709.614Z"/>
                </g>
                <g transform="matrix(0.836076,0,0.29029,1,60.6403,-2.26609)">
                    <path d="M1831.46,620.325L1810.38,620.325C1808.97,620.325 1808.16,619.369 1808.57,618.191C1808.98,617.013 1810.45,616.057 1811.86,616.057L1834.86,616.057C1835.99,616.057 1836.77,616.684 1836.77,617.596L1836.77,711.153C1836.77,711.798 1836.38,712.493 1835.71,713.03C1835.04,713.566 1834.18,713.882 1833.38,713.882L1782.56,713.882C1781.15,713.882 1780.34,712.926 1780.75,711.748C1781.16,710.57 1782.64,709.614 1784.05,709.614L1831.46,709.614L1831.46,620.325Z"/>
                </g>
                <g transform="matrix(1,0,0.477775,1.38266,-339.314,-243.265)">
                    <rect x="1756.99" y="627.483" width="53.328" height="7.484"/>
                </g>
                <g transform="matrix(1,0,0.477775,1.38266,-334.084,-226.275)">
                    <rect x="1756.99" y="627.483" width="53.328" height="7.484"/>
                </g>
                <g transform="matrix(1,0,0.477775,1.38266,-328.854,-209.285)">
                    <rect x="1756.99" y="627.483" width="53.328" height="7.484"/>
                </g>
                <g transform="matrix(1,0,0.477775,1.38266,-323.624,-192.296)">
                    <rect x="1756.99" y="627.483" width="53.328" height="7.484"/>
                </g>
                <g transform="matrix(1,0,0.477775,1.38266,-318.395,-175.306)">
                    <rect x="1756.99" y="627.483" width="53.328" height="7.484"/>
                </g>
            </g>
            <g id="GIRL">
                <g>
                    <path d="M1789.51,672.758C1787.56,667.26 1775.92,632.854 1784.91,618.245C1785.52,617.294 1786.49,616.634 1787.59,616.423C1790.79,615.905 1797.61,617.254 1807.26,632.812C1807.26,632.812 1894.88,764.407 1926.51,784.068C1926.51,784.068 1927.35,683.584 2045.66,667.155C2062.08,664.874 2177.5,642.44 2242.19,802.585C2263.59,855.568 2263.35,897.931 2262.97,943.213C2262.72,979.108 2244.09,1012.37 2213.6,1031.32C2213.6,1031.32 2213.6,1031.32 2213.6,1031.32C2173.65,1056.16 2124.11,1060.04 2080.78,1041.71C2051.71,1029.46 2014.19,1017.01 1971.6,1010.74L1878.1,1001.7C1878.1,1001.7 1882.77,1027.25 1844.06,1022.33C1844.06,1022.33 1813.58,1018.31 1819.67,997.867C1819.67,997.867 1799.13,994.545 1803.37,974.691C1803.37,974.691 1783.9,959.499 1801.19,940.953C1801.19,940.953 1744.98,940.277 1733.55,913.508C1732.59,911.192 1732.53,908.595 1733.4,906.24C1734.45,903.329 1737.17,900.229 1743.8,900.002C1743.8,900.002 1821.56,898.807 1842.02,892.948L1797.57,817.327C1797.57,817.327 1762.95,798.298 1754.97,767.879C1746.75,767.917 1739.77,761.577 1739.14,753.25C1738.6,746.127 1742.88,739.743 1749.22,737.298L1745.58,737.573C1736.98,738.221 1729.48,731.769 1728.83,723.174C1728.31,716.237 1732.41,710.011 1738.53,707.526C1730.23,707.909 1723.08,701.615 1722.45,693.28C1721.81,684.793 1728.18,677.383 1736.66,676.743L1789.51,672.758Z" style="fill:url(#_Linear3);"/>
                    <path d="M1876.82,1011.55C1858.52,1010.5 1843.83,1014.89 1843.83,1014.89C1841.18,1015.69 1838.39,1014.18 1837.6,1011.54C1836.81,1008.9 1838.31,1006.11 1840.96,1005.31C1840.96,1005.31 1862.33,998.902 1886.58,1002.52L1878.1,1001.7C1878.1,1001.7 1878.98,1006.51 1876.82,1011.55ZM1810.26,993.954C1813.76,983.341 1825.67,959.931 1863.51,954.157C1866.23,953.741 1868.79,955.618 1869.2,958.346C1869.62,961.074 1867.74,963.627 1865.01,964.043C1831.64,969.135 1822,990.105 1819.54,997.845C1818.76,997.7 1814.35,996.785 1810.26,993.954ZM1796.15,965.533C1801.04,955.103 1814.37,938.155 1850.19,931.483C1852.9,930.978 1855.52,932.77 1856.02,935.483C1856.53,938.196 1854.73,940.809 1852.02,941.314C1807.33,949.638 1803.23,975.322 1803.37,974.691C1803.37,974.691 1798.9,971.204 1796.15,965.533ZM1788.78,940.088C1794.63,932.505 1813.15,911.403 1840.48,907.487C1843.21,907.095 1845.75,908.995 1846.14,911.727C1846.53,914.459 1844.63,916.994 1841.9,917.386C1822.66,920.142 1808.56,932.752 1801.12,940.994C1800.19,940.976 1795.37,940.807 1788.78,940.088ZM2079.61,889.478L2140.66,910.939C2143.26,911.854 2146.12,910.484 2147.04,907.88C2147.95,905.277 2146.58,902.42 2143.98,901.505L2082.93,880.043C2080.32,879.128 2077.47,880.499 2076.55,883.102C2075.64,885.706 2077.01,888.562 2079.61,889.478ZM1836.81,884.073C1843.22,882.806 1913.77,869.107 1965.23,869.66C1967.99,869.69 1970.21,871.954 1970.18,874.714C1970.15,877.473 1967.88,879.689 1965.12,879.66C1912.04,879.089 1840.65,893.342 1842.02,892.948L1836.81,884.073ZM1797.57,817.327L1813.04,824.286C1815.05,825.217 1815.91,827.598 1814.99,829.6C1814.05,831.602 1811.67,832.472 1809.67,831.541L1804.52,829.144L1797.57,817.327ZM1786.89,664.622C1795.94,666.096 1802.38,670.929 1804.72,674.751C1809.95,683.282 1807.88,691.655 1802.88,697.619C1803.2,699.208 1803.75,701.633 1804.58,704.587C1805.79,705.438 1806.81,706.324 1807.66,707.208C1812.29,712.018 1812.59,717.122 1812.68,718.697C1812.78,720.595 1812.61,722.36 1812.21,723.998C1816.57,732.204 1822.71,740.297 1831.38,744.954C1833.32,745.998 1834.05,748.425 1833.01,750.37C1831.97,752.315 1829.54,753.046 1827.59,752.002C1823.92,750.028 1820.62,747.539 1817.65,744.71C1817.66,744.748 1817.67,744.785 1817.68,744.823C1820.93,754.98 1815.72,765.945 1805.76,769.826C1790.6,775.775 1769.36,776.17 1757.75,775.852C1756.63,773.291 1755.69,770.632 1754.97,767.879C1753.95,767.884 1785.35,769.241 1802.84,762.375C1808.94,759.999 1812.09,753.247 1810,747.046C1809.97,746.977 1809.95,746.907 1809.93,746.837C1808.43,742.712 1804.33,740.106 1799.95,740.52L1791.71,741.299C1790.13,741.768 1789.13,741.973 1789.13,741.973C1788.33,742.137 1787.53,742.048 1786.83,741.76L1740.23,746.164C1741.86,742.133 1745.1,738.886 1749.22,737.298L1790.24,733.403C1792.67,732.634 1796.34,731.203 1799.47,728.855C1802.41,726.646 1804.94,723.555 1804.69,719.138C1804.64,718.264 1804.47,715.431 1801.9,712.759C1798.72,709.466 1792.48,706.692 1780.55,706.416C1780.23,706.409 1779.92,706.364 1779.63,706.286C1765.66,706.748 1751.34,706.963 1737.1,707.525C1731.87,707.284 1727.24,704.404 1724.63,700.11C1745.32,698.935 1766.44,698.852 1786.62,698.023C1789.47,697.906 1792.58,696.436 1795.07,694.209C1795.41,693.605 1795.91,693.093 1796.52,692.736C1799.62,689.157 1800.94,684.177 1797.9,678.929C1795.08,674.067 1789.51,672.758 1789.51,672.758C1789.05,671.454 1788.04,668.525 1786.89,664.622ZM1812.18,742.099C1810.83,742.669 1810.62,743.264 1810.52,743.457C1810.73,743.154 1810.99,742.878 1811.28,742.642C1811.55,742.427 1811.85,742.244 1812.18,742.1L1812.25,742.072L1812.18,742.099ZM1807.69,732.191C1807.31,732.608 1806.9,733.011 1806.49,733.399C1807.44,733.72 1808.36,734.12 1809.24,734.594C1808.7,733.8 1808.19,732.998 1807.69,732.191Z" style="fill:rgb(253,149,0);"/>
                    <path d="M1926.18,783.862L1926.51,784.068C1926.51,784.068 1927.35,683.584 2045.66,667.155C2062.08,664.874 2177.5,642.44 2242.19,802.585C2242.42,803.142 2242.64,803.697 2242.86,804.25C2204.52,844.605 2162.37,814.188 2162.37,814.188C2141.76,877.193 2075.86,850.123 2075.86,850.123L2097.18,895.643C2047.39,877.357 1950.54,880.011 1950.54,880.011C1930.46,854.707 1926.65,809.136 1926.18,783.862Z" style="fill:rgb(253,149,0);"/>
                    <path d="M2073.87,888.92C2073.87,888.92 2061.01,847.412 2051.75,817.559C2051.34,816.221 2052.02,814.788 2053.31,814.259C2054.61,813.731 2056.1,814.283 2056.74,815.53C2073.13,847.578 2097.84,895.871 2097.84,895.871L2073.87,888.92Z" style="fill:rgb(232,97,53);"/>
                </g>
                <g>
                    <path d="M1708.24,1157.65C1801.07,1045.05 1993.3,1086.82 2035.62,1092.4C2309.51,1128.51 2248.76,1338.9 2238.86,1365.77C2217.12,1424.74 2164.78,1447.55 2086.67,1455.48L2086.67,1684.35C2086.67,1684.35 2062.83,1663.06 2057.35,1638.88C2057.35,1638.88 2047.95,1638.3 2031.69,1636.67C2031.69,1636.67 2044.06,1670.24 2050.57,1687.92C2051.47,1690.34 2051.12,1693.04 2049.64,1695.15C2048.17,1697.27 2045.76,1698.53 2043.18,1698.53L1732.16,1698.53C1749.1,1667.61 1782.45,1667.87 1782.45,1667.87C1769.42,1635.23 1755.98,1603.49 1742.75,1571.09C1657.57,1537.06 1582.46,1486.54 1559.55,1411.95C1550.66,1383.01 1545.41,1255.68 1708.24,1157.65Z" style="fill:url(#_Linear4);"/>
                    <path d="M1752.04,1593.68C1783.01,1609.31 1836.62,1623.81 1872.15,1564.18C1872.9,1562.91 1874.17,1562.05 1875.62,1561.8C1877.07,1561.56 1878.55,1561.97 1879.68,1562.92C1879.68,1562.92 1901.9,1581.71 1929.23,1590.99C1944.99,1596.34 1962.51,1598.6 1978.25,1591.5C1988.67,1586.79 1998.23,1577.96 2006.04,1563.43C2007.34,1561 2010.37,1560.08 2012.81,1561.39C2015.24,1562.7 2016.15,1565.73 2014.84,1568.16C2005.77,1585.05 1994.48,1595.14 1982.36,1600.61C1964.27,1608.78 1944.12,1606.61 1926.01,1600.46C1904.5,1593.15 1885.96,1580.32 1877.74,1574.11C1842.01,1629.06 1791.41,1621.29 1757.55,1607.01L1755.19,1601.32C1754.36,1599.31 1753.53,1597.3 1752.7,1595.29L1752.04,1593.68Z" style="fill:rgb(253,149,0);"/>
                    <path d="M1976.57,1457.56C1976.57,1457.56 1891.67,1457.21 1844.95,1457.02C1843.04,1457.01 1841.41,1458.43 1841.16,1460.33C1840.92,1462.23 1842.12,1464.02 1843.97,1464.5C1892.93,1477.34 1986.71,1501.94 1986.71,1501.94L1976.57,1457.56Z" style="fill:rgb(253,149,0);"/>
                    <path d="M2092.79,1454.82C2090.76,1455.05 2088.73,1455.27 2086.67,1455.48L2086.67,1465.24C2049.39,1467.58 2014.85,1468.16 1981.17,1467.7L2042.37,1637.68C2039.25,1637.4 2035.67,1637.07 2031.69,1636.67L2040.61,1660.89C2040.1,1660.38 2039.68,1659.75 2039.42,1659.02L1970.48,1467.53C1964.18,1467.4 1957.91,1467.24 1951.64,1467.05C1948.89,1466.97 1946.72,1464.66 1946.8,1461.91C1946.88,1459.15 1949.19,1456.98 1951.94,1457.06C1996.8,1458.41 2042.19,1458.25 2092.79,1454.82ZM1733.36,1132.62C1676.37,1183.44 1653.89,1238.9 1669.61,1335.52C1680.31,1401.32 1708.53,1485.88 1755.39,1600.37C1755.7,1601.12 1755.81,1601.91 1755.75,1602.67C1751.41,1592.18 1747.07,1581.67 1742.75,1571.09C1738.76,1569.5 1734.8,1567.87 1730.86,1566.2C1692.71,1469.72 1669.31,1395.97 1659.74,1337.13C1648.03,1265.19 1656.76,1215.14 1684.27,1173.1C1691.82,1167.88 1699.8,1162.73 1708.24,1157.65C1715.97,1148.27 1724.39,1139.96 1733.36,1132.62Z" style="fill:rgb(253,149,0);"/>
                </g>
                <g>
                    <g transform="matrix(1.0436,0,0,1.05132,-87.9969,-50.2575)">
                        <circle cx="1957.8" cy="606.84" r="70.296" style="fill:rgb(255,191,47);"/>
                    </g>
                    <path d="M1898.21,541.163C1911.67,524.485 1932.19,513.82 1955.17,513.82C1995.66,513.82 2028.53,546.934 2028.53,587.723C2028.53,596.06 2027.16,604.076 2024.63,611.55C2011.69,610.417 2004.34,600.781 2001.81,596.752C2006.54,594.316 2009.83,588.946 2009.83,582.72C2009.83,574.206 2003.68,567.293 1996.1,567.293C1988.52,567.293 1982.37,574.206 1982.37,582.72C1982.37,584.732 1982.71,586.656 1983.34,588.42C1936.86,593.427 1907.3,555.054 1898.21,541.163ZM1931.53,502.057C1933.43,502.697 1935.52,501.965 1936.61,500.28C1937.69,498.596 1937.5,496.389 1936.13,494.922C1935.74,494.441 1935.3,493.973 1934.84,493.491C1923.28,481.436 1910.26,470.496 1896.39,461.242C1853.73,432.771 1802.9,411.475 1752.93,400.175C1701.31,388.503 1636.88,387.846 1591.27,418.053C1561.26,437.924 1538.82,479.97 1564.69,512.804C1573.97,524.581 1587.3,532.766 1601.08,538.278C1656.86,560.59 1715.02,546.514 1768.01,524.172C1798.18,511.451 1828.18,494.588 1861.04,489.355C1881.67,486.07 1913.5,495.672 1931.53,502.057Z"/>
                </g>
            </g>
            <g id="GIRLS-CHAIR" serif:id="GIRLS CHAIR" transform="matrix(1,0,0,1,6.02348,2.73409)">
                <path d="M2208.42,1455.26L2348.01,1078.39L2377.8,1089.25L2156.14,1697.47L2118.71,1697.47L2196.68,1486.96L1974.6,1486.96L1974.6,1455.26L2208.42,1455.26Z"/>
            </g>
            <g id="COMPUTER-SCREEN" serif:id="COMPUTER SCREEN">
                <g>
                    <g>
                        <g transform="matrix(0.843235,0,0.162401,0.964007,99.7904,26.5646)">
                            <rect x="1242.49" y="686.84" width="497.646" height="305.717"/>
                        </g>
                        <g transform="matrix(0.188267,0,0.0445801,0.264627,1212.9,786.955)">
                            <rect x="1242.49" y="686.84" width="497.646" height="305.717"/>
                        </g>
                    </g>
                    <g transform="matrix(0.737584,0,0.134256,0.796939,280.009,163.781)">
                        <rect x="1242.49" y="686.84" width="497.646" height="305.717" style="fill:rgb(234,234,235);"/>
                    </g>
                </g>
                <g>
                    <g transform="matrix(0.250622,0,0.059635,0.353992,1167,489.54)">
                        <rect x="1242.49" y="686.84" width="497.646" height="305.717" style="fill:white;"/>
                    </g>
                    <g transform="matrix(0.250622,0,0.059635,0.353992,1167,489.54)">
                        <path d="M1254.63,695.315L1254.63,801.066C1254.63,805.678 1249.19,810.053 1242.49,810.83C1235.79,811.608 1230.35,808.494 1230.35,803.881L1230.35,688.248C1230.35,685.789 1231.92,683.272 1234.65,681.368C1237.38,679.464 1240.98,678.366 1244.5,678.366L1742.15,678.366C1747.99,678.366 1752.27,681.353 1752.27,685.433L1752.27,801.066C1752.27,805.678 1746.83,810.053 1740.13,810.83C1733.43,811.608 1728,808.494 1728,803.881L1728,695.315L1254.63,695.315Z"/>
                    </g>
                    <g transform="matrix(0.250622,0,0.059635,0.353992,1167,489.54)">
                        <path d="M1728,984.083L1728,803.881C1728,799.269 1733.43,794.893 1740.13,794.116C1746.83,793.339 1752.27,796.453 1752.27,801.066L1752.27,991.15C1752.27,993.609 1750.7,996.126 1747.97,998.03C1745.24,999.934 1741.64,1001.03 1738.12,1001.03L1240.47,1001.03C1234.63,1001.03 1230.35,998.045 1230.35,993.965L1230.35,803.881C1230.35,799.269 1235.79,794.893 1242.49,794.116C1249.19,793.339 1254.63,796.453 1254.63,801.066L1254.63,984.083L1728,984.083Z"/>
                    </g>
                    <path d="M1582.76,840.898L1576.68,840.898L1558.33,732.676L1564.42,732.676L1582.76,840.898ZM1627.13,840.898L1621.04,840.898L1602.7,732.676L1608.78,732.676L1627.13,840.898Z"/>
                    <path d="M1658.11,815.995L1533.39,815.995L1532.38,809.995L1657.1,809.995L1658.11,815.995ZM1653.62,789.32L1528.9,789.32L1527.89,783.32L1652.61,783.32L1653.62,789.32ZM1648.79,760.634L1524.07,760.634L1523.05,754.634L1647.78,754.634L1648.79,760.634Z"/>
                </g>
                <g>
                    <g>
                        <g transform="matrix(0.43426,0,0.0904681,0.537017,741.787,400.271)">
                            <path d="M1510.92,992.558L1740.13,992.558L1740.13,686.84L1574.61,686.84" style="fill:white;"/>
                        </g>
                        <g transform="matrix(0.43426,0,0.0904681,0.537017,741.787,400.271)">
                            <path d="M1733.13,692.427L1573.44,692.427C1569.63,692.427 1567.06,689.924 1567.7,686.84C1568.34,683.757 1571.96,681.254 1575.77,681.254L1741.3,681.254C1744.67,681.254 1747.14,683.223 1747.14,685.912L1747.14,991.63C1747.14,993.251 1746.23,994.91 1744.66,996.165C1743.08,997.42 1741,998.144 1738.97,998.144L1509.75,998.144C1505.94,998.144 1503.37,995.641 1504.01,992.558C1504.65,989.474 1508.27,986.971 1512.08,986.971L1733.13,986.971L1733.13,692.427Z"/>
                        </g>
                        <g transform="matrix(0.43426,0,0.0904681,0.537017,741.787,400.271)">
                            <path d="M1574.61,686.84L1242.49,686.84L1242.49,992.558L1510.92,992.558" style="fill:white;"/>
                        </g>
                        <g transform="matrix(0.43426,0,0.0904681,0.537017,741.787,400.271)">
                            <path d="M1249.49,986.971L1512.08,986.971C1515.89,986.971 1518.47,989.474 1517.83,992.558C1517.18,995.641 1513.57,998.144 1509.75,998.144L1241.32,998.144C1237.95,998.144 1235.48,996.175 1235.48,993.486L1235.48,687.769C1235.48,686.148 1236.39,684.489 1237.96,683.233C1239.54,681.978 1241.62,681.254 1243.65,681.254L1575.77,681.254C1579.58,681.254 1582.16,683.757 1581.52,686.84C1580.87,689.924 1577.26,692.427 1573.44,692.427L1249.49,692.427L1249.49,986.971Z"/>
                        </g>
                        <g transform="matrix(0.43426,0,0.0108641,0.064489,796.463,724.822)">
                            <rect x="1242.49" y="686.84" width="497.646" height="305.717"/>
                        </g>
                        <path d="M1579.47,887.098L1363.36,887.098L1362.35,881.098L1578.46,881.098L1579.47,887.098ZM1570.56,834.224L1354.46,834.224L1353.44,828.224L1569.55,828.224L1570.56,834.224Z"/>
                        <path d="M1426.53,933.291L1420.45,933.291L1392.62,769.116L1398.7,769.116L1426.53,933.291ZM1485.42,933.291L1479.33,933.291L1451.5,769.116L1457.59,769.116L1485.42,933.291ZM1543.57,933.291L1537.49,933.291L1509.66,769.116L1515.74,769.116L1543.57,933.291Z"/>
                    </g>
                    <g>
                        <g transform="matrix(39.1332,-3.06228,2.9801,38.083,1539.87,874.293)">
                            <path d="M0.622,-0.215C0.622,-0.172 0.611,-0.133 0.589,-0.098C0.566,-0.064 0.534,-0.037 0.491,-0.017C0.448,0.002 0.397,0.012 0.338,0.012C0.267,0.012 0.209,-0.001 0.163,-0.028C0.131,-0.047 0.104,-0.073 0.084,-0.105C0.063,-0.137 0.053,-0.168 0.053,-0.198C0.053,-0.216 0.059,-0.231 0.072,-0.243C0.084,-0.256 0.099,-0.262 0.118,-0.262C0.133,-0.262 0.146,-0.257 0.157,-0.248C0.168,-0.238 0.177,-0.223 0.184,-0.204C0.193,-0.181 0.203,-0.162 0.214,-0.147C0.224,-0.132 0.239,-0.119 0.258,-0.109C0.278,-0.099 0.303,-0.094 0.334,-0.094C0.377,-0.094 0.412,-0.104 0.439,-0.124C0.466,-0.144 0.479,-0.169 0.479,-0.199C0.479,-0.223 0.472,-0.242 0.457,-0.257C0.443,-0.272 0.424,-0.283 0.401,-0.291C0.378,-0.299 0.347,-0.307 0.309,-0.316C0.258,-0.328 0.215,-0.342 0.18,-0.358C0.145,-0.374 0.118,-0.396 0.097,-0.424C0.077,-0.452 0.067,-0.486 0.067,-0.528C0.067,-0.567 0.078,-0.602 0.099,-0.633C0.121,-0.663 0.152,-0.687 0.192,-0.703C0.233,-0.72 0.281,-0.728 0.336,-0.728C0.38,-0.728 0.418,-0.723 0.45,-0.712C0.482,-0.701 0.509,-0.686 0.53,-0.668C0.551,-0.65 0.566,-0.631 0.576,-0.611C0.586,-0.591 0.591,-0.572 0.591,-0.553C0.591,-0.536 0.585,-0.52 0.573,-0.507C0.56,-0.493 0.545,-0.486 0.527,-0.486C0.51,-0.486 0.498,-0.49 0.489,-0.498C0.48,-0.507 0.471,-0.52 0.461,-0.539C0.448,-0.566 0.432,-0.587 0.414,-0.602C0.396,-0.617 0.367,-0.625 0.326,-0.625C0.289,-0.625 0.259,-0.617 0.236,-0.6C0.213,-0.584 0.201,-0.564 0.201,-0.541C0.201,-0.527 0.205,-0.514 0.213,-0.504C0.221,-0.493 0.231,-0.485 0.245,-0.477C0.259,-0.47 0.273,-0.464 0.287,-0.459C0.301,-0.455 0.324,-0.449 0.356,-0.441C0.396,-0.431 0.433,-0.421 0.466,-0.41C0.498,-0.398 0.526,-0.384 0.549,-0.368C0.572,-0.352 0.59,-0.331 0.603,-0.306C0.616,-0.281 0.622,-0.251 0.622,-0.215Z" style="fill-rule:nonzero;"/>
                        </g>
                        <g transform="matrix(0.999849,-0.0173515,0.0173515,0.999849,-14.7933,25.9972)">
                            <path d="M1547.41,845.252L1551.14,876.43C1551.34,878.074 1552.83,879.249 1554.47,879.053C1556.12,878.857 1557.29,877.362 1557.1,875.718L1553.37,844.54C1553.18,842.896 1551.68,841.721 1550.04,841.917C1548.39,842.114 1547.22,843.608 1547.41,845.252Z"/>
                        </g>
                    </g>
                    <path d="M1371.33,798.43L1374.76,818.371C1375.04,820.003 1376.6,821.099 1378.23,820.819C1379.86,820.538 1380.96,818.985 1380.67,817.353L1377.24,797.413C1376.96,795.781 1375.41,794.684 1373.78,794.965C1372.15,795.246 1371.05,796.798 1371.33,798.43Z"/>
                    <g transform="matrix(1,0,0,1,18.943,101.882)">
                        <path d="M1371.33,798.43L1374.76,818.371C1375.04,820.003 1376.6,821.099 1378.23,820.819C1379.86,820.538 1380.96,818.985 1380.67,817.353L1377.24,797.413C1376.96,795.781 1375.41,794.684 1373.78,794.965C1372.15,795.246 1371.05,796.798 1371.33,798.43Z"/>
                    </g>
                    <g>
                        <g transform="matrix(0.872154,-0.126564,0.123316,0.849772,92.3663,350.963)">
                            <path d="M1432.45,800.316C1433.5,800.316 1434.24,801.314 1434.92,802.509C1436.05,804.472 1436.7,807.196 1436.7,810.189C1436.7,813.183 1436.05,815.906 1434.92,817.87C1434.24,819.064 1433.5,820.062 1432.45,820.062C1430.57,820.062 1429.05,821.628 1429.05,823.556C1429.05,825.484 1430.57,827.05 1432.45,827.05C1435.1,827.05 1437.64,825.706 1439.63,823.16C1441.91,820.227 1443.51,815.525 1443.51,810.189C1443.51,804.853 1441.91,800.152 1439.63,797.219C1437.64,794.673 1435.1,793.329 1432.45,793.329C1430.57,793.329 1429.05,794.894 1429.05,796.823C1429.05,798.751 1430.57,800.316 1432.45,800.316Z"/>
                        </g>
                        <g transform="matrix(0.872154,-0.126564,0.123316,0.849772,92.3663,350.963)">
                            <path d="M1432.45,820.062C1431.41,820.062 1430.66,819.064 1429.98,817.87C1428.86,815.906 1428.21,813.183 1428.21,810.189C1428.21,807.196 1428.86,804.472 1429.98,802.509C1430.66,801.314 1431.41,800.316 1432.45,800.316C1434.33,800.316 1435.86,798.751 1435.86,796.823C1435.86,794.894 1434.33,793.329 1432.45,793.329C1429.8,793.329 1427.27,794.673 1425.28,797.219C1422.99,800.152 1421.4,804.853 1421.4,810.189C1421.4,815.525 1422.99,820.227 1425.28,823.16C1427.27,825.706 1429.8,827.05 1432.45,827.05C1434.33,827.05 1435.86,825.484 1435.86,823.556C1435.86,821.628 1434.33,820.062 1432.45,820.062Z"/>
                        </g>
                    </g>
                    <g>
                        <g transform="matrix(0.872154,-0.126564,0.123316,0.849772,100.543,403.611)">
                            <path d="M1432.45,800.316C1433.5,800.316 1434.24,801.314 1434.92,802.509C1436.05,804.472 1436.7,807.196 1436.7,810.189C1436.7,813.183 1436.05,815.906 1434.92,817.87C1434.24,819.064 1433.5,820.062 1432.45,820.062C1430.57,820.062 1429.05,821.628 1429.05,823.556C1429.05,825.484 1430.57,827.05 1432.45,827.05C1435.1,827.05 1437.64,825.706 1439.63,823.16C1441.91,820.227 1443.51,815.525 1443.51,810.189C1443.51,804.853 1441.91,800.152 1439.63,797.219C1437.64,794.673 1435.1,793.329 1432.45,793.329C1430.57,793.329 1429.05,794.894 1429.05,796.823C1429.05,798.751 1430.57,800.316 1432.45,800.316Z"/>
                        </g>
                        <g transform="matrix(0.872154,-0.126564,0.123316,0.849772,100.543,403.611)">
                            <path d="M1432.45,820.062C1431.41,820.062 1430.66,819.064 1429.98,817.87C1428.86,815.906 1428.21,813.183 1428.21,810.189C1428.21,807.196 1428.86,804.472 1429.98,802.509C1430.66,801.314 1431.41,800.316 1432.45,800.316C1434.33,800.316 1435.86,798.751 1435.86,796.823C1435.86,794.894 1434.33,793.329 1432.45,793.329C1429.8,793.329 1427.27,794.673 1425.28,797.219C1422.99,800.152 1421.4,804.853 1421.4,810.189C1421.4,815.525 1422.99,820.227 1425.28,823.16C1427.27,825.706 1429.8,827.05 1432.45,827.05C1434.33,827.05 1435.86,825.484 1435.86,823.556C1435.86,821.628 1434.33,820.062 1432.45,820.062Z"/>
                        </g>
                    </g>
                    <g>
                        <g transform="matrix(0.872154,-0.126564,0.123316,0.849772,158.987,403.58)">
                            <path d="M1432.45,800.316C1433.5,800.316 1434.24,801.314 1434.92,802.509C1436.05,804.472 1436.7,807.196 1436.7,810.189C1436.7,813.183 1436.05,815.906 1434.92,817.87C1434.24,819.064 1433.5,820.062 1432.45,820.062C1430.57,820.062 1429.05,821.628 1429.05,823.556C1429.05,825.484 1430.57,827.05 1432.45,827.05C1435.1,827.05 1437.64,825.706 1439.63,823.16C1441.91,820.227 1443.51,815.525 1443.51,810.189C1443.51,804.853 1441.91,800.152 1439.63,797.219C1437.64,794.673 1435.1,793.329 1432.45,793.329C1430.57,793.329 1429.05,794.894 1429.05,796.823C1429.05,798.751 1430.57,800.316 1432.45,800.316Z"/>
                        </g>
                        <g transform="matrix(0.872154,-0.126564,0.123316,0.849772,158.987,403.58)">
                            <path d="M1432.45,820.062C1431.41,820.062 1430.66,819.064 1429.98,817.87C1428.86,815.906 1428.21,813.183 1428.21,810.189C1428.21,807.196 1428.86,804.472 1429.98,802.509C1430.66,801.314 1431.41,800.316 1432.45,800.316C1434.33,800.316 1435.86,798.751 1435.86,796.823C1435.86,794.894 1434.33,793.329 1432.45,793.329C1429.8,793.329 1427.27,794.673 1425.28,797.219C1422.99,800.152 1421.4,804.853 1421.4,810.189C1421.4,815.525 1422.99,820.227 1425.28,823.16C1427.27,825.706 1429.8,827.05 1432.45,827.05C1434.33,827.05 1435.86,825.484 1435.86,823.556C1435.86,821.628 1434.33,820.062 1432.45,820.062Z"/>
                        </g>
                    </g>
                </g>
            </g>
            <g id="CALCULATOR">
                <g transform="matrix(0.783652,0.324094,-0.364731,0.799184,456.503,-337.805)">
                    <rect x="1323.04" y="461.54" width="148.747" height="183.517" style="fill:rgb(221,97,64);"/>
                </g>
                <g transform="matrix(0.647214,0.267668,-0.0474112,0.103886,493.968,77.1391)">
                    <rect x="1323.04" y="461.54" width="148.747" height="183.517" style="fill:white;"/>
                </g>
                <g>
                    <g>
                        <g transform="matrix(0.907626,0.392889,-0.37877,0.87501,318.062,-459.153)">
                            <path d="M1325.61,518.351C1330.08,518.351 1333.73,521.949 1333.73,526.417C1333.73,530.885 1330.08,534.483 1325.61,534.483L1325.61,537.629C1331.78,537.629 1336.76,532.589 1336.76,526.417C1336.76,520.245 1331.78,515.205 1325.61,515.205L1325.61,518.351Z" style="fill:white;"/>
                        </g>
                        <g transform="matrix(0.907626,0.392889,-0.37877,0.87501,318.062,-459.153)">
                            <path d="M1325.61,534.483C1321.14,534.483 1317.49,530.885 1317.49,526.417C1317.49,521.949 1321.14,518.351 1325.61,518.351L1325.61,515.205C1319.43,515.205 1314.45,520.245 1314.45,526.417C1314.45,532.589 1319.43,537.629 1325.61,537.629L1325.61,534.483Z" style="fill:white;"/>
                        </g>
                    </g>
                    <g>
                        <g transform="matrix(0.907626,0.392889,-0.37877,0.87501,307.832,-435.519)">
                            <path d="M1325.61,518.351C1330.08,518.351 1333.73,521.949 1333.73,526.417C1333.73,530.885 1330.08,534.483 1325.61,534.483L1325.61,537.629C1331.78,537.629 1336.76,532.589 1336.76,526.417C1336.76,520.245 1331.78,515.205 1325.61,515.205L1325.61,518.351Z" style="fill:white;"/>
                        </g>
                        <g transform="matrix(0.907626,0.392889,-0.37877,0.87501,307.832,-435.519)">
                            <path d="M1325.61,534.483C1321.14,534.483 1317.49,530.885 1317.49,526.417C1317.49,521.949 1321.14,518.351 1325.61,518.351L1325.61,515.205C1319.43,515.205 1314.45,520.245 1314.45,526.417C1314.45,532.589 1319.43,537.629 1325.61,537.629L1325.61,534.483Z" style="fill:white;"/>
                        </g>
                    </g>
                    <g>
                        <g transform="matrix(0.907626,0.392889,-0.37877,0.87501,297.602,-411.886)">
                            <path d="M1325.61,518.351C1330.08,518.351 1333.73,521.949 1333.73,526.417C1333.73,530.885 1330.08,534.483 1325.61,534.483L1325.61,537.629C1331.78,537.629 1336.76,532.589 1336.76,526.417C1336.76,520.245 1331.78,515.205 1325.61,515.205L1325.61,518.351Z" style="fill:white;"/>
                        </g>
                        <g transform="matrix(0.907626,0.392889,-0.37877,0.87501,297.602,-411.886)">
                            <path d="M1325.61,534.483C1321.14,534.483 1317.49,530.885 1317.49,526.417C1317.49,521.949 1321.14,518.351 1325.61,518.351L1325.61,515.205C1319.43,515.205 1314.45,520.245 1314.45,526.417C1314.45,532.589 1319.43,537.629 1325.61,537.629L1325.61,534.483Z" style="fill:white;"/>
                        </g>
                    </g>
                    <g>
                        <g transform="matrix(0.907626,0.392889,-0.37877,0.87501,287.371,-388.252)">
                            <path d="M1325.61,518.351C1330.08,518.351 1333.73,521.949 1333.73,526.417C1333.73,530.885 1330.08,534.483 1325.61,534.483L1325.61,537.629C1331.78,537.629 1336.76,532.589 1336.76,526.417C1336.76,520.245 1331.78,515.205 1325.61,515.205L1325.61,518.351Z" style="fill:white;"/>
                        </g>
                        <g transform="matrix(0.907626,0.392889,-0.37877,0.87501,287.371,-388.252)">
                            <path d="M1325.61,534.483C1321.14,534.483 1317.49,530.885 1317.49,526.417C1317.49,521.949 1321.14,518.351 1325.61,518.351L1325.61,515.205C1319.43,515.205 1314.45,520.245 1314.45,526.417C1314.45,532.589 1319.43,537.629 1325.61,537.629L1325.61,534.483Z" style="fill:white;"/>
                        </g>
                    </g>
                    <g>
                        <g transform="matrix(0.907626,0.392889,-0.37877,0.87501,341.967,-448.805)">
                            <path d="M1325.61,518.351C1330.08,518.351 1333.73,521.949 1333.73,526.417C1333.73,530.885 1330.08,534.483 1325.61,534.483L1325.61,537.629C1331.78,537.629 1336.76,532.589 1336.76,526.417C1336.76,520.245 1331.78,515.205 1325.61,515.205L1325.61,518.351Z" style="fill:white;"/>
                        </g>
                        <g transform="matrix(0.907626,0.392889,-0.37877,0.87501,341.967,-448.805)">
                            <path d="M1325.61,534.483C1321.14,534.483 1317.49,530.885 1317.49,526.417C1317.49,521.949 1321.14,518.351 1325.61,518.351L1325.61,515.205C1319.43,515.205 1314.45,520.245 1314.45,526.417C1314.45,532.589 1319.43,537.629 1325.61,537.629L1325.61,534.483Z" style="fill:white;"/>
                        </g>
                    </g>
                    <g>
                        <g transform="matrix(0.907626,0.392889,-0.37877,0.87501,331.736,-425.172)">
                            <path d="M1325.61,518.351C1330.08,518.351 1333.73,521.949 1333.73,526.417C1333.73,530.885 1330.08,534.483 1325.61,534.483L1325.61,537.629C1331.78,537.629 1336.76,532.589 1336.76,526.417C1336.76,520.245 1331.78,515.205 1325.61,515.205L1325.61,518.351Z" style="fill:white;"/>
                        </g>
                        <g transform="matrix(0.907626,0.392889,-0.37877,0.87501,331.736,-425.172)">
                            <path d="M1325.61,534.483C1321.14,534.483 1317.49,530.885 1317.49,526.417C1317.49,521.949 1321.14,518.351 1325.61,518.351L1325.61,515.205C1319.43,515.205 1314.45,520.245 1314.45,526.417C1314.45,532.589 1319.43,537.629 1325.61,537.629L1325.61,534.483Z" style="fill:white;"/>
                        </g>
                    </g>
                    <g>
                        <g transform="matrix(0.907626,0.392889,-0.37877,0.87501,321.506,-401.538)">
                            <path d="M1325.61,518.351C1330.08,518.351 1333.73,521.949 1333.73,526.417C1333.73,530.885 1330.08,534.483 1325.61,534.483L1325.61,537.629C1331.78,537.629 1336.76,532.589 1336.76,526.417C1336.76,520.245 1331.78,515.205 1325.61,515.205L1325.61,518.351Z" style="fill:white;"/>
                        </g>
                        <g transform="matrix(0.907626,0.392889,-0.37877,0.87501,321.506,-401.538)">
                            <path d="M1325.61,534.483C1321.14,534.483 1317.49,530.885 1317.49,526.417C1317.49,521.949 1321.14,518.351 1325.61,518.351L1325.61,515.205C1319.43,515.205 1314.45,520.245 1314.45,526.417C1314.45,532.589 1319.43,537.629 1325.61,537.629L1325.61,534.483Z" style="fill:white;"/>
                        </g>
                    </g>
                    <g>
                        <g transform="matrix(0.907626,0.392889,-0.37877,0.87501,311.275,-377.905)">
                            <path d="M1325.61,518.351C1330.08,518.351 1333.73,521.949 1333.73,526.417C1333.73,530.885 1330.08,534.483 1325.61,534.483L1325.61,537.629C1331.78,537.629 1336.76,532.589 1336.76,526.417C1336.76,520.245 1331.78,515.205 1325.61,515.205L1325.61,518.351Z" style="fill:white;"/>
                        </g>
                        <g transform="matrix(0.907626,0.392889,-0.37877,0.87501,311.275,-377.905)">
                            <path d="M1325.61,534.483C1321.14,534.483 1317.49,530.885 1317.49,526.417C1317.49,521.949 1321.14,518.351 1325.61,518.351L1325.61,515.205C1319.43,515.205 1314.45,520.245 1314.45,526.417C1314.45,532.589 1319.43,537.629 1325.61,537.629L1325.61,534.483Z" style="fill:white;"/>
                        </g>
                    </g>
                    <g>
                        <g transform="matrix(0.907626,0.392889,-0.37877,0.87501,365.871,-438.458)">
                            <path d="M1325.61,518.351C1330.08,518.351 1333.73,521.949 1333.73,526.417C1333.73,530.885 1330.08,534.483 1325.61,534.483L1325.61,537.629C1331.78,537.629 1336.76,532.589 1336.76,526.417C1336.76,520.245 1331.78,515.205 1325.61,515.205L1325.61,518.351Z" style="fill:white;"/>
                        </g>
                        <g transform="matrix(0.907626,0.392889,-0.37877,0.87501,365.871,-438.458)">
                            <path d="M1325.61,534.483C1321.14,534.483 1317.49,530.885 1317.49,526.417C1317.49,521.949 1321.14,518.351 1325.61,518.351L1325.61,515.205C1319.43,515.205 1314.45,520.245 1314.45,526.417C1314.45,532.589 1319.43,537.629 1325.61,537.629L1325.61,534.483Z" style="fill:white;"/>
                        </g>
                    </g>
                    <g>
                        <g transform="matrix(0.907626,0.392889,-0.37877,0.87501,355.641,-414.824)">
                            <path d="M1325.61,518.351C1330.08,518.351 1333.73,521.949 1333.73,526.417C1333.73,530.885 1330.08,534.483 1325.61,534.483L1325.61,537.629C1331.78,537.629 1336.76,532.589 1336.76,526.417C1336.76,520.245 1331.78,515.205 1325.61,515.205L1325.61,518.351Z" style="fill:white;"/>
                        </g>
                        <g transform="matrix(0.907626,0.392889,-0.37877,0.87501,355.641,-414.824)">
                            <path d="M1325.61,534.483C1321.14,534.483 1317.49,530.885 1317.49,526.417C1317.49,521.949 1321.14,518.351 1325.61,518.351L1325.61,515.205C1319.43,515.205 1314.45,520.245 1314.45,526.417C1314.45,532.589 1319.43,537.629 1325.61,537.629L1325.61,534.483Z" style="fill:white;"/>
                        </g>
                    </g>
                    <g>
                        <g transform="matrix(0.907626,0.392889,-0.37877,0.87501,345.41,-391.191)">
                            <path d="M1325.61,518.351C1330.08,518.351 1333.73,521.949 1333.73,526.417C1333.73,530.885 1330.08,534.483 1325.61,534.483L1325.61,537.629C1331.78,537.629 1336.76,532.589 1336.76,526.417C1336.76,520.245 1331.78,515.205 1325.61,515.205L1325.61,518.351Z" style="fill:white;"/>
                        </g>
                        <g transform="matrix(0.907626,0.392889,-0.37877,0.87501,345.41,-391.191)">
                            <path d="M1325.61,534.483C1321.14,534.483 1317.49,530.885 1317.49,526.417C1317.49,521.949 1321.14,518.351 1325.61,518.351L1325.61,515.205C1319.43,515.205 1314.45,520.245 1314.45,526.417C1314.45,532.589 1319.43,537.629 1325.61,537.629L1325.61,534.483Z" style="fill:white;"/>
                        </g>
                    </g>
                    <g>
                        <g transform="matrix(0.907626,0.392889,-0.37877,0.87501,335.18,-367.557)">
                            <path d="M1325.61,518.351C1330.08,518.351 1333.73,521.949 1333.73,526.417C1333.73,530.885 1330.08,534.483 1325.61,534.483L1325.61,537.629C1331.78,537.629 1336.76,532.589 1336.76,526.417C1336.76,520.245 1331.78,515.205 1325.61,515.205L1325.61,518.351Z" style="fill:white;"/>
                        </g>
                        <g transform="matrix(0.907626,0.392889,-0.37877,0.87501,335.18,-367.557)">
                            <path d="M1325.61,534.483C1321.14,534.483 1317.49,530.885 1317.49,526.417C1317.49,521.949 1321.14,518.351 1325.61,518.351L1325.61,515.205C1319.43,515.205 1314.45,520.245 1314.45,526.417C1314.45,532.589 1319.43,537.629 1325.61,537.629L1325.61,534.483Z" style="fill:white;"/>
                        </g>
                    </g>
                    <g>
                        <g transform="matrix(0.907626,0.392889,-0.37877,0.87501,389.775,-428.11)">
                            <path d="M1325.61,518.351C1330.08,518.351 1333.73,521.949 1333.73,526.417C1333.73,530.885 1330.08,534.483 1325.61,534.483L1325.61,537.629C1331.78,537.629 1336.76,532.589 1336.76,526.417C1336.76,520.245 1331.78,515.205 1325.61,515.205L1325.61,518.351Z" style="fill:white;"/>
                        </g>
                        <g transform="matrix(0.907626,0.392889,-0.37877,0.87501,389.775,-428.11)">
                            <path d="M1325.61,534.483C1321.14,534.483 1317.49,530.885 1317.49,526.417C1317.49,521.949 1321.14,518.351 1325.61,518.351L1325.61,515.205C1319.43,515.205 1314.45,520.245 1314.45,526.417C1314.45,532.589 1319.43,537.629 1325.61,537.629L1325.61,534.483Z" style="fill:white;"/>
                        </g>
                    </g>
                    <g>
                        <g transform="matrix(0.907626,0.392889,-0.37877,0.87501,379.545,-404.476)">
                            <path d="M1325.61,518.351C1330.08,518.351 1333.73,521.949 1333.73,526.417C1333.73,530.885 1330.08,534.483 1325.61,534.483L1325.61,537.629C1331.78,537.629 1336.76,532.589 1336.76,526.417C1336.76,520.245 1331.78,515.205 1325.61,515.205L1325.61,518.351Z" style="fill:white;"/>
                        </g>
                        <g transform="matrix(0.907626,0.392889,-0.37877,0.87501,379.545,-404.476)">
                            <path d="M1325.61,534.483C1321.14,534.483 1317.49,530.885 1317.49,526.417C1317.49,521.949 1321.14,518.351 1325.61,518.351L1325.61,515.205C1319.43,515.205 1314.45,520.245 1314.45,526.417C1314.45,532.589 1319.43,537.629 1325.61,537.629L1325.61,534.483Z" style="fill:white;"/>
                        </g>
                    </g>
                    <g>
                        <g transform="matrix(0.907626,0.392889,-0.37877,0.87501,369.314,-380.843)">
                            <path d="M1325.61,518.351C1330.08,518.351 1333.73,521.949 1333.73,526.417C1333.73,530.885 1330.08,534.483 1325.61,534.483L1325.61,537.629C1331.78,537.629 1336.76,532.589 1336.76,526.417C1336.76,520.245 1331.78,515.205 1325.61,515.205L1325.61,518.351Z" style="fill:white;"/>
                        </g>
                        <g transform="matrix(0.907626,0.392889,-0.37877,0.87501,369.314,-380.843)">
                            <path d="M1325.61,534.483C1321.14,534.483 1317.49,530.885 1317.49,526.417C1317.49,521.949 1321.14,518.351 1325.61,518.351L1325.61,515.205C1319.43,515.205 1314.45,520.245 1314.45,526.417C1314.45,532.589 1319.43,537.629 1325.61,537.629L1325.61,534.483Z" style="fill:white;"/>
                        </g>
                    </g>
                    <g>
                        <g transform="matrix(0.907626,0.392889,-0.37877,0.87501,359.084,-357.209)">
                            <path d="M1325.61,518.351C1330.08,518.351 1333.73,521.949 1333.73,526.417C1333.73,530.885 1330.08,534.483 1325.61,534.483L1325.61,537.629C1331.78,537.629 1336.76,532.589 1336.76,526.417C1336.76,520.245 1331.78,515.205 1325.61,515.205L1325.61,518.351Z" style="fill:white;"/>
                        </g>
                        <g transform="matrix(0.907626,0.392889,-0.37877,0.87501,359.084,-357.209)">
                            <path d="M1325.61,534.483C1321.14,534.483 1317.49,530.885 1317.49,526.417C1317.49,521.949 1321.14,518.351 1325.61,518.351L1325.61,515.205C1319.43,515.205 1314.45,520.245 1314.45,526.417C1314.45,532.589 1319.43,537.629 1325.61,537.629L1325.61,534.483Z" style="fill:white;"/>
                        </g>
                    </g>
                </g>
            </g>
            <g id="DESK" transform="matrix(1,0,0,1,3.02579,6.52912)">
                <rect x="724.585" y="1039.91" width="1340.43" height="37.948"/>
            </g>
            <g id="KEYBOARD" transform="matrix(1,0,0,1,-0.676235,-1.59399)">
                <path d="M1688.28,1027.9L1705.37,1027.9L1705.37,1020.74L1732.05,1020.74L1732.05,1027.9L1750.24,1027.9L1750.24,1020.74L1776.92,1020.74L1776.92,1027.9L1795.12,1027.9L1795.12,1020.74L1821.8,1020.74L1821.8,1027.9L1827.48,1027.9C1830.09,1027.9 1832.59,1028.94 1834.44,1030.79C1836.28,1032.63 1837.32,1035.13 1837.32,1037.74L1837.32,1047.72L1644.04,1047.72C1644.04,1047.72 1644.04,1042.72 1644.04,1037.74C1644.04,1035.13 1645.08,1032.63 1646.92,1030.79C1648.77,1028.94 1651.27,1027.9 1653.88,1027.9L1661.6,1027.9L1661.6,1020.74L1688.28,1020.74L1688.28,1027.9Z" style="fill:rgb(210,211,213);"/>
            </g>
            <g id="NOTEPAD">
                <g transform="matrix(0.974413,0,0,1,22.0427,43.2776)">
                    <rect x="789.796" y="979.025" width="240.809" height="26.775" style="fill:white;"/>
                </g>
                <g>
                    <path d="M918.566,1017.91L918.566,1025.91L796.958,1025.91L796.958,1043.12L918.566,1043.12L918.566,1051.12L792.958,1051.12C790.749,1051.12 788.958,1049.33 788.958,1047.12L788.958,1021.91C788.958,1019.7 790.749,1017.91 792.958,1017.91L918.566,1017.91Z"/>
                    <path d="M918.566,1017.91L1029.68,1017.91C1031.89,1017.91 1033.68,1019.7 1033.68,1021.91L1033.68,1047.12C1033.68,1049.33 1031.89,1051.12 1029.68,1051.12L918.566,1051.12C914.844,1047.2 916.267,1045.01 918.566,1043.12L1025.68,1043.12L1025.68,1025.91L918.566,1025.91C917.05,1022.96 916.678,1020.22 918.566,1017.91Z"/>
                    <path d="M933.095,1023.13L933.749,1048.25C933.807,1050.46 935.645,1052.2 937.852,1052.15C940.059,1052.09 941.804,1050.25 941.747,1048.04L941.092,1022.92C941.034,1020.72 939.196,1018.97 936.989,1019.03C934.782,1019.09 933.037,1020.93 933.095,1023.13ZM983.32,1011.43L983.32,1046.71C983.32,1048.92 985.112,1050.71 987.32,1050.71C989.527,1050.71 991.32,1048.92 991.32,1046.71L991.32,1011.43C991.32,1009.22 989.527,1007.43 987.32,1007.43C985.112,1007.43 983.32,1009.22 983.32,1011.43ZM958.671,1012.01L958.671,1044.44C958.671,1046.65 960.463,1048.44 962.671,1048.44C964.879,1048.44 966.671,1046.65 966.671,1044.44L966.671,1012.01C966.671,1009.8 964.879,1008.01 962.671,1008.01C960.463,1008.01 958.671,1009.8 958.671,1012.01ZM1006.83,1011.78L1006.83,1043.59C1006.83,1045.79 1008.62,1047.59 1010.83,1047.59C1013.04,1047.59 1014.83,1045.79 1014.83,1043.59L1014.83,1011.78C1014.83,1009.58 1013.04,1007.78 1010.83,1007.78C1008.62,1007.78 1006.83,1009.58 1006.83,1011.78Z"/>
                </g>
            </g>
            <g id="JAR" transform="matrix(1,0,0,1,3.16784,-1.5972)">
                <g id="JAR1" serif:id="JAR">
                    <path d="M1081.12,833.887L1074.04,833.887C1070.1,833.887 1066.9,830.687 1066.9,826.747C1066.9,822.806 1070.1,819.607 1074.04,819.607L1251.62,819.607C1255.57,819.607 1258.76,822.806 1258.76,826.747C1258.76,830.687 1255.57,833.887 1251.62,833.887L1248.32,833.887C1251.91,835.149 1255.22,837.208 1257.96,839.955C1262.78,844.768 1265.48,851.296 1265.48,858.102L1265.48,1047.76L1063.95,1047.76C1063.95,1047.76 1063.95,915.204 1063.95,858.102C1063.95,851.296 1066.66,844.768 1071.47,839.955C1074.22,837.208 1077.52,835.149 1081.12,833.887Z" style="fill:rgb(255,244,229);"/>
                    <path d="M1248.32,833.887C1250.88,834.785 1253.29,836.089 1255.46,837.756L1068.53,843.476C1069.4,842.225 1070.38,841.046 1071.47,839.955C1074.22,837.208 1077.52,835.149 1081.12,833.887L1248.32,833.887Z" style="fill:rgb(244,151,139);"/>
                </g>
                <g id="BILLS">
                    <g>
                        <g transform="matrix(0.910266,-0.275905,0.29456,0.971812,-183.502,326.179)">
                            <rect x="1090.3" y="886.251" width="71.37" height="115.885" style="fill:rgb(244,151,139);"/>
                        </g>
                        <g>
                            <g transform="matrix(1,0,0,1,4.58908,-9.29654)">
                                <path d="M1116.04,930.425C1123.66,930.425 1129.85,936.615 1129.85,944.239C1129.85,951.863 1123.66,958.052 1116.04,958.052C1114.38,958.052 1113.04,959.396 1113.04,961.052C1113.04,962.708 1114.38,964.052 1116.04,964.052C1126.97,964.052 1135.85,955.174 1135.85,944.239C1135.85,933.304 1126.97,924.425 1116.04,924.425C1114.38,924.425 1113.04,925.77 1113.04,927.425C1113.04,929.081 1114.38,930.425 1116.04,930.425Z" style="fill:rgb(222,102,71);"/>
                            </g>
                            <g transform="matrix(1,0,0,1,4.58908,-9.29654)">
                                <path d="M1116.04,958.052C1108.41,958.052 1102.23,951.863 1102.23,944.239C1102.23,936.615 1108.41,930.425 1116.04,930.425C1117.69,930.425 1119.04,929.081 1119.04,927.425C1119.04,925.77 1117.69,924.425 1116.04,924.425C1105.1,924.425 1096.23,933.304 1096.23,944.239C1096.23,955.174 1105.1,964.052 1116.04,964.052C1117.69,964.052 1119.04,962.708 1119.04,961.052C1119.04,959.396 1117.69,958.052 1116.04,958.052Z" style="fill:rgb(222,102,71);"/>
                            </g>
                            <path d="M1127.02,992.315L1121.84,976.46C1121.16,974.362 1122.31,972.102 1124.4,971.417C1126.5,970.732 1128.76,971.879 1129.45,973.978L1134.68,989.994L1127.02,992.315ZM1137.79,989.05L1134.3,977.767C1133.65,975.658 1134.83,973.416 1136.94,972.763C1139.05,972.111 1141.29,973.293 1141.94,975.402L1145.45,986.729L1137.79,989.05ZM1112.37,873.791L1118.02,892.055C1118.67,894.164 1117.49,896.406 1115.38,897.058C1113.27,897.711 1111.03,896.528 1110.38,894.419L1104.71,876.112L1112.37,873.791ZM1099.84,877.588L1104.59,891.435C1105.31,893.523 1104.19,895.8 1102.1,896.516C1100.01,897.232 1097.74,896.118 1097.02,894.029L1092.18,879.91L1099.84,877.588Z" style="fill:rgb(222,102,71);"/>
                        </g>
                    </g>
                    <g transform="matrix(0.849564,0.527485,-0.527485,0.849564,755.422,-402.502)">
                        <g transform="matrix(0.910266,-0.275905,0.29456,0.971812,-183.502,326.179)">
                            <rect x="1090.3" y="886.251" width="71.37" height="115.885" style="fill:rgb(244,151,139);"/>
                        </g>
                        <g>
                            <g transform="matrix(1,0,0,1,4.58908,-9.29654)">
                                <path d="M1116.04,930.425C1123.66,930.425 1129.85,936.615 1129.85,944.239C1129.85,951.863 1123.66,958.052 1116.04,958.052C1114.38,958.052 1113.04,959.396 1113.04,961.052C1113.04,962.708 1114.38,964.052 1116.04,964.052C1126.97,964.052 1135.85,955.174 1135.85,944.239C1135.85,933.304 1126.97,924.425 1116.04,924.425C1114.38,924.425 1113.04,925.77 1113.04,927.425C1113.04,929.081 1114.38,930.425 1116.04,930.425Z" style="fill:rgb(222,102,71);"/>
                            </g>
                            <g transform="matrix(1,0,0,1,4.58908,-9.29654)">
                                <path d="M1116.04,958.052C1108.41,958.052 1102.23,951.863 1102.23,944.239C1102.23,936.615 1108.41,930.425 1116.04,930.425C1117.69,930.425 1119.04,929.081 1119.04,927.425C1119.04,925.77 1117.69,924.425 1116.04,924.425C1105.1,924.425 1096.23,933.304 1096.23,944.239C1096.23,955.174 1105.1,964.052 1116.04,964.052C1117.69,964.052 1119.04,962.708 1119.04,961.052C1119.04,959.396 1117.69,958.052 1116.04,958.052Z" style="fill:rgb(222,102,71);"/>
                            </g>
                            <path d="M1127.02,992.315L1121.84,976.46C1121.16,974.362 1122.31,972.102 1124.4,971.417C1126.5,970.732 1128.76,971.879 1129.45,973.978L1134.68,989.994L1127.02,992.315ZM1137.79,989.05L1134.3,977.767C1133.65,975.658 1134.83,973.416 1136.94,972.763C1139.05,972.111 1141.29,973.293 1141.94,975.402L1145.45,986.729L1137.79,989.05ZM1112.37,873.791L1118.02,892.055C1118.67,894.164 1117.49,896.406 1115.38,897.058C1113.27,897.711 1111.03,896.528 1110.38,894.419L1104.71,876.112L1112.37,873.791ZM1099.84,877.588L1104.59,891.435C1105.31,893.523 1104.19,895.8 1102.1,896.516C1100.01,897.232 1097.74,896.118 1097.02,894.029L1092.18,879.91L1099.84,877.588Z" style="fill:rgb(222,102,71);"/>
                        </g>
                    </g>
                </g>
                <g id="COINS">
                    <g transform="matrix(0.152362,0,0,0.15348,988.073,820.014)">
                        <g transform="matrix(1.00734,0,0,1,-121.537,12.8484)">
                            <circle cx="1494.85" cy="372.517" r="157.821" style="fill:rgb(255,207,132);"/>
                        </g>
                        <g transform="matrix(6.99699,0,0,6.94602,-7035.01,-5737.77)">
                            <path d="M1203.57,867.056C1211.78,867.056 1218.45,873.727 1218.45,881.944C1218.45,890.162 1211.78,896.833 1203.57,896.833C1202.78,896.833 1202.13,897.474 1202.13,898.263C1202.13,899.052 1202.78,899.693 1203.57,899.693C1213.36,899.693 1221.31,891.74 1221.31,881.944C1221.31,872.149 1213.36,864.196 1203.57,864.196C1202.78,864.196 1202.13,864.837 1202.13,865.626C1202.13,866.415 1202.78,867.056 1203.57,867.056Z" style="fill:rgb(253,169,47);"/>
                        </g>
                        <g transform="matrix(6.99699,0,0,6.94602,-7035.01,-5737.77)">
                            <path d="M1203.57,896.833C1195.35,896.833 1188.68,890.162 1188.68,881.944C1188.68,873.727 1195.35,867.056 1203.57,867.056C1204.35,867.056 1204.99,866.415 1204.99,865.626C1204.99,864.837 1204.35,864.196 1203.57,864.196C1193.77,864.196 1185.82,872.149 1185.82,881.944C1185.82,891.74 1193.77,899.693 1203.57,899.693C1204.35,899.693 1204.99,899.052 1204.99,898.263C1204.99,897.474 1204.35,896.833 1203.57,896.833Z" style="fill:rgb(253,169,47);"/>
                        </g>
                        <g transform="matrix(6.5633,0,0,6.5155,-6485.02,-5342.8)">
                            <path d="M1195.38,903.115L1195.6,897.323C1195.63,896.482 1196.34,895.826 1197.18,895.859C1198.03,895.891 1198.68,896.6 1198.65,897.441L1198.42,903.376C1197.39,903.352 1196.37,903.264 1195.38,903.115ZM1204.25,902.807L1202.76,896.89C1202.56,896.074 1203.05,895.245 1203.87,895.04C1204.68,894.835 1205.51,895.331 1205.72,896.146L1207.18,901.958C1206.23,902.301 1205.25,902.585 1204.25,902.807ZM1178.84,892.607L1183.4,889.006C1184.06,888.484 1185.02,888.597 1185.54,889.257C1186.06,889.917 1185.95,890.876 1185.29,891.398L1180.69,895.03C1180.03,894.263 1179.41,893.454 1178.84,892.607ZM1175.76,886.06L1181.46,882.971C1182.2,882.57 1183.13,882.845 1183.53,883.585C1183.93,884.324 1183.65,885.25 1182.91,885.651L1176.83,888.95C1176.41,888.016 1176.06,887.051 1175.76,886.06ZM1222.94,882.737L1217.44,882.482C1216.6,882.443 1215.95,881.729 1215.99,880.889C1216.03,880.048 1216.74,879.398 1217.58,879.436L1223.2,879.697C1223.18,880.727 1223.09,881.741 1222.94,882.737ZM1215.93,861.86C1216.66,862.573 1217.34,863.331 1217.98,864.131L1213.51,868.721C1212.92,869.324 1211.96,869.338 1211.36,868.751C1210.75,868.164 1210.74,867.198 1211.33,866.595L1215.93,861.86ZM1186.92,858.158L1190.88,864.072C1191.35,864.771 1191.16,865.718 1190.46,866.187C1189.76,866.655 1188.81,866.468 1188.35,865.769L1184.38,859.843C1185.18,859.23 1186.03,858.667 1186.92,858.158ZM1201.09,855.028C1202.11,855.116 1203.12,855.268 1204.11,855.481L1203.51,861.533C1203.42,862.371 1202.67,862.983 1201.84,862.899C1201,862.816 1200.39,862.069 1200.47,861.232L1201.09,855.028Z" style="fill:rgb(253,169,47);"/>
                        </g>
                    </g>
                    <g transform="matrix(-0.0172876,0.151378,-0.152489,-0.0174144,1240.29,729.908)">
                        <g transform="matrix(1.00734,0,0,1,-121.537,12.8484)">
                            <circle cx="1494.85" cy="372.517" r="157.821" style="fill:rgb(255,207,132);"/>
                        </g>
                        <g transform="matrix(6.99699,0,0,6.94602,-7035.01,-5737.77)">
                            <path d="M1203.57,867.056C1211.78,867.056 1218.45,873.727 1218.45,881.944C1218.45,890.162 1211.78,896.833 1203.57,896.833C1202.78,896.833 1202.13,897.474 1202.13,898.263C1202.13,899.052 1202.78,899.693 1203.57,899.693C1213.36,899.693 1221.31,891.74 1221.31,881.944C1221.31,872.149 1213.36,864.196 1203.57,864.196C1202.78,864.196 1202.13,864.837 1202.13,865.626C1202.13,866.415 1202.78,867.056 1203.57,867.056Z" style="fill:rgb(253,169,47);"/>
                        </g>
                        <g transform="matrix(6.99699,0,0,6.94602,-7035.01,-5737.77)">
                            <path d="M1203.57,896.833C1195.35,896.833 1188.68,890.162 1188.68,881.944C1188.68,873.727 1195.35,867.056 1203.57,867.056C1204.35,867.056 1204.99,866.415 1204.99,865.626C1204.99,864.837 1204.35,864.196 1203.57,864.196C1193.77,864.196 1185.82,872.149 1185.82,881.944C1185.82,891.74 1193.77,899.693 1203.57,899.693C1204.35,899.693 1204.99,899.052 1204.99,898.263C1204.99,897.474 1204.35,896.833 1203.57,896.833Z" style="fill:rgb(253,169,47);"/>
                        </g>
                        <g transform="matrix(6.5633,0,0,6.5155,-6485.02,-5342.8)">
                            <path d="M1195.38,903.115L1195.6,897.323C1195.63,896.482 1196.34,895.826 1197.18,895.859C1198.03,895.891 1198.68,896.6 1198.65,897.441L1198.42,903.376C1197.39,903.352 1196.37,903.264 1195.38,903.115ZM1204.25,902.807L1202.76,896.89C1202.56,896.074 1203.05,895.245 1203.87,895.04C1204.68,894.835 1205.51,895.331 1205.72,896.146L1207.18,901.958C1206.23,902.301 1205.25,902.585 1204.25,902.807ZM1178.84,892.607L1183.4,889.006C1184.06,888.484 1185.02,888.597 1185.54,889.257C1186.06,889.917 1185.95,890.876 1185.29,891.398L1180.69,895.03C1180.03,894.263 1179.41,893.454 1178.84,892.607ZM1175.76,886.06L1181.46,882.971C1182.2,882.57 1183.13,882.845 1183.53,883.585C1183.93,884.324 1183.65,885.25 1182.91,885.651L1176.83,888.95C1176.41,888.016 1176.06,887.051 1175.76,886.06ZM1222.94,882.737L1217.44,882.482C1216.6,882.443 1215.95,881.729 1215.99,880.889C1216.03,880.048 1216.74,879.398 1217.58,879.436L1223.2,879.697C1223.18,880.727 1223.09,881.741 1222.94,882.737ZM1215.93,861.86C1216.66,862.573 1217.34,863.331 1217.98,864.131L1213.51,868.721C1212.92,869.324 1211.96,869.338 1211.36,868.751C1210.75,868.164 1210.74,867.198 1211.33,866.595L1215.93,861.86ZM1186.92,858.158L1190.88,864.072C1191.35,864.771 1191.16,865.718 1190.46,866.187C1189.76,866.655 1188.81,866.468 1188.35,865.769L1184.38,859.843C1185.18,859.23 1186.03,858.667 1186.92,858.158ZM1201.09,855.028C1202.11,855.116 1203.12,855.268 1204.11,855.481L1203.51,861.533C1203.42,862.371 1202.67,862.983 1201.84,862.899C1201,862.816 1200.39,862.069 1200.47,861.232L1201.09,855.028Z" style="fill:rgb(253,169,47);"/>
                        </g>
                    </g>
                    <g transform="matrix(0.111656,0.103669,-0.10443,0.112475,990.357,833.943)">
                        <g transform="matrix(1.00734,0,0,1,-121.537,12.8484)">
                            <circle cx="1494.85" cy="372.517" r="157.821" style="fill:rgb(255,207,132);"/>
                        </g>
                        <g transform="matrix(6.99699,0,0,6.94602,-7035.01,-5737.77)">
                            <path d="M1203.57,867.056C1211.78,867.056 1218.45,873.727 1218.45,881.944C1218.45,890.162 1211.78,896.833 1203.57,896.833C1202.78,896.833 1202.13,897.474 1202.13,898.263C1202.13,899.052 1202.78,899.693 1203.57,899.693C1213.36,899.693 1221.31,891.74 1221.31,881.944C1221.31,872.149 1213.36,864.196 1203.57,864.196C1202.78,864.196 1202.13,864.837 1202.13,865.626C1202.13,866.415 1202.78,867.056 1203.57,867.056Z" style="fill:rgb(253,169,47);"/>
                        </g>
                        <g transform="matrix(6.99699,0,0,6.94602,-7035.01,-5737.77)">
                            <path d="M1203.57,896.833C1195.35,896.833 1188.68,890.162 1188.68,881.944C1188.68,873.727 1195.35,867.056 1203.57,867.056C1204.35,867.056 1204.99,866.415 1204.99,865.626C1204.99,864.837 1204.35,864.196 1203.57,864.196C1193.77,864.196 1185.82,872.149 1185.82,881.944C1185.82,891.74 1193.77,899.693 1203.57,899.693C1204.35,899.693 1204.99,899.052 1204.99,898.263C1204.99,897.474 1204.35,896.833 1203.57,896.833Z" style="fill:rgb(253,169,47);"/>
                        </g>
                        <g transform="matrix(6.5633,0,0,6.5155,-6485.02,-5342.8)">
                            <path d="M1195.38,903.115L1195.6,897.323C1195.63,896.482 1196.34,895.826 1197.18,895.859C1198.03,895.891 1198.68,896.6 1198.65,897.441L1198.42,903.376C1197.39,903.352 1196.37,903.264 1195.38,903.115ZM1204.25,902.807L1202.76,896.89C1202.56,896.074 1203.05,895.245 1203.87,895.04C1204.68,894.835 1205.51,895.331 1205.72,896.146L1207.18,901.958C1206.23,902.301 1205.25,902.585 1204.25,902.807ZM1178.84,892.607L1183.4,889.006C1184.06,888.484 1185.02,888.597 1185.54,889.257C1186.06,889.917 1185.95,890.876 1185.29,891.398L1180.69,895.03C1180.03,894.263 1179.41,893.454 1178.84,892.607ZM1175.76,886.06L1181.46,882.971C1182.2,882.57 1183.13,882.845 1183.53,883.585C1183.93,884.324 1183.65,885.25 1182.91,885.651L1176.83,888.95C1176.41,888.016 1176.06,887.051 1175.76,886.06ZM1222.94,882.737L1217.44,882.482C1216.6,882.443 1215.95,881.729 1215.99,880.889C1216.03,880.048 1216.74,879.398 1217.58,879.436L1223.2,879.697C1223.18,880.727 1223.09,881.741 1222.94,882.737ZM1215.93,861.86C1216.66,862.573 1217.34,863.331 1217.98,864.131L1213.51,868.721C1212.92,869.324 1211.96,869.338 1211.36,868.751C1210.75,868.164 1210.74,867.198 1211.33,866.595L1215.93,861.86ZM1186.92,858.158L1190.88,864.072C1191.35,864.771 1191.16,865.718 1190.46,866.187C1189.76,866.655 1188.81,866.468 1188.35,865.769L1184.38,859.843C1185.18,859.23 1186.03,858.667 1186.92,858.158ZM1201.09,855.028C1202.11,855.116 1203.12,855.268 1204.11,855.481L1203.51,861.533C1203.42,862.371 1202.67,862.983 1201.84,862.899C1201,862.816 1200.39,862.069 1200.47,861.232L1201.09,855.028Z" style="fill:rgb(253,169,47);"/>
                        </g>
                    </g>
                    <g transform="matrix(0.149682,-0.0284542,0.028663,0.15078,1017.04,1003.81)">
                        <g transform="matrix(1.00734,0,0,1,-121.537,12.8484)">
                            <circle cx="1494.85" cy="372.517" r="157.821" style="fill:rgb(255,207,132);"/>
                        </g>
                        <g transform="matrix(6.99699,0,0,6.94602,-7035.01,-5737.77)">
                            <path d="M1203.57,867.056C1211.78,867.056 1218.45,873.727 1218.45,881.944C1218.45,890.162 1211.78,896.833 1203.57,896.833C1202.78,896.833 1202.13,897.474 1202.13,898.263C1202.13,899.052 1202.78,899.693 1203.57,899.693C1213.36,899.693 1221.31,891.74 1221.31,881.944C1221.31,872.149 1213.36,864.196 1203.57,864.196C1202.78,864.196 1202.13,864.837 1202.13,865.626C1202.13,866.415 1202.78,867.056 1203.57,867.056Z" style="fill:rgb(253,169,47);"/>
                        </g>
                        <g transform="matrix(6.99699,0,0,6.94602,-7035.01,-5737.77)">
                            <path d="M1203.57,896.833C1195.35,896.833 1188.68,890.162 1188.68,881.944C1188.68,873.727 1195.35,867.056 1203.57,867.056C1204.35,867.056 1204.99,866.415 1204.99,865.626C1204.99,864.837 1204.35,864.196 1203.57,864.196C1193.77,864.196 1185.82,872.149 1185.82,881.944C1185.82,891.74 1193.77,899.693 1203.57,899.693C1204.35,899.693 1204.99,899.052 1204.99,898.263C1204.99,897.474 1204.35,896.833 1203.57,896.833Z" style="fill:rgb(253,169,47);"/>
                        </g>
                        <g transform="matrix(6.5633,0,0,6.5155,-6485.02,-5342.8)">
                            <path d="M1195.38,903.115L1195.6,897.323C1195.63,896.482 1196.34,895.826 1197.18,895.859C1198.03,895.891 1198.68,896.6 1198.65,897.441L1198.42,903.376C1197.39,903.352 1196.37,903.264 1195.38,903.115ZM1204.25,902.807L1202.76,896.89C1202.56,896.074 1203.05,895.245 1203.87,895.04C1204.68,894.835 1205.51,895.331 1205.72,896.146L1207.18,901.958C1206.23,902.301 1205.25,902.585 1204.25,902.807ZM1178.84,892.607L1183.4,889.006C1184.06,888.484 1185.02,888.597 1185.54,889.257C1186.06,889.917 1185.95,890.876 1185.29,891.398L1180.69,895.03C1180.03,894.263 1179.41,893.454 1178.84,892.607ZM1175.76,886.06L1181.46,882.971C1182.2,882.57 1183.13,882.845 1183.53,883.585C1183.93,884.324 1183.65,885.25 1182.91,885.651L1176.83,888.95C1176.41,888.016 1176.06,887.051 1175.76,886.06ZM1222.94,882.737L1217.44,882.482C1216.6,882.443 1215.95,881.729 1215.99,880.889C1216.03,880.048 1216.74,879.398 1217.58,879.436L1223.2,879.697C1223.18,880.727 1223.09,881.741 1222.94,882.737ZM1215.93,861.86C1216.66,862.573 1217.34,863.331 1217.98,864.131L1213.51,868.721C1212.92,869.324 1211.96,869.338 1211.36,868.751C1210.75,868.164 1210.74,867.198 1211.33,866.595L1215.93,861.86ZM1186.92,858.158L1190.88,864.072C1191.35,864.771 1191.16,865.718 1190.46,866.187C1189.76,866.655 1188.81,866.468 1188.35,865.769L1184.38,859.843C1185.18,859.23 1186.03,858.667 1186.92,858.158ZM1201.09,855.028C1202.11,855.116 1203.12,855.268 1204.11,855.481L1203.51,861.533C1203.42,862.371 1202.67,862.983 1201.84,862.899C1201,862.816 1200.39,862.069 1200.47,861.232L1201.09,855.028Z" style="fill:rgb(253,169,47);"/>
                        </g>
                    </g>
                </g>
            </g>
            <g id="PAPER-BILL" serif:id="PAPER BILL" transform="matrix(1,0,0,1,5.21737,-5.81481)">
                <path d="M1173.41,1048.87L1056.07,1253.2L1007.81,1253.2C1007.81,1253.2 992.981,1284.88 1015.45,1296.48L1236.8,1296.48C1237.03,1296.48 1237.25,1296.5 1237.48,1296.53C1241.89,1296.85 1267.08,1296.13 1287.01,1244.49C1319.39,1160.61 1352.21,1112.22 1385.36,1048.87L1173.41,1048.87Z" style="fill:rgb(233,233,235);"/>
                <g transform="matrix(0.93449,0.13298,-0.313392,0.955354,442.97,-95.9341)">
                    <ellipse cx="1144.86" cy="1200.21" rx="37.235" ry="35.603" style="fill:white;"/>
                </g>
                <g transform="matrix(1.02716,0.0108992,-0.640974,1.16934,644.813,-194.141)">
                    <rect x="1179.39" y="1059.64" width="177.381" height="12.168" style="fill:rgb(186,189,194);"/>
                </g>
                <g transform="matrix(1.03199,0.00927035,-0.639149,1.17041,624.093,-166.819)">
                    <rect x="1179.39" y="1059.64" width="177.381" height="12.168" style="fill:rgb(186,189,194);"/>
                </g>
                <g transform="matrix(1.03531,0.026932,-0.65816,1.15904,625.602,-150.226)">
                    <rect x="1179.39" y="1059.64" width="177.381" height="12.168" style="fill:rgb(186,189,194);"/>
                </g>
                <g transform="matrix(1.0299,0.0446274,-0.676583,1.14736,637.838,-133.605)">
                    <rect x="1179.39" y="1059.64" width="177.381" height="12.168" style="fill:rgb(186,189,194);"/>
                </g>
                <g transform="matrix(0.549765,0.0277179,-0.562031,1.11902,1148.2,-51.3241)">
                    <rect x="1179.39" y="1059.64" width="177.381" height="12.168" style="fill:rgb(186,189,194);"/>
                </g>
                <g transform="matrix(0.371267,0.0223134,-0.468608,1.12431,1275.26,-20.7622)">
                    <rect x="1179.39" y="1059.64" width="177.381" height="12.168" style="fill:rgb(186,189,194);"/>
                </g>
                <g transform="matrix(0.492546,0.036704,-0.392064,1.1297,1016.41,-16.9977)">
                    <rect x="1179.39" y="1059.64" width="177.381" height="12.168" style="fill:rgb(186,189,194);"/>
                </g>
                <path d="M1060.46,1245.55L1218.57,1245.55C1218.75,1245.55 1218.93,1245.57 1219.11,1245.59C1220.81,1245.82 1222.24,1246.75 1222.9,1248.91C1223.22,1249.95 1223.25,1252.02 1222.84,1254.82C1221.39,1264.85 1214.92,1290.16 1240.82,1296.43C1239.29,1296.6 1238.14,1296.57 1237.48,1296.53C1237.25,1296.5 1237.03,1296.48 1236.8,1296.48L1223.27,1296.48C1222.39,1295.7 1221.58,1294.88 1220.83,1294.03C1211.71,1283.67 1212.69,1268.67 1214.17,1258.62C1214.42,1256.89 1214.67,1255.02 1214.86,1253.55L1056.07,1253.2L1060.46,1245.55Z"/>
                <g transform="matrix(0.259277,0.187502,-0.187502,0.259277,898.122,890.161)">
                    <g transform="matrix(187.083,-86.746,58.002,189.528,1142.68,441.752)">
                        <path d="M0.084,-0.173C0.141,-0.126 0.208,-0.103 0.286,-0.102C0.379,-0.103 0.425,-0.136 0.427,-0.201C0.427,-0.254 0.396,-0.286 0.334,-0.297C0.305,-0.301 0.274,-0.305 0.24,-0.31C0.179,-0.32 0.132,-0.343 0.1,-0.378C0.067,-0.414 0.051,-0.458 0.051,-0.51C0.051,-0.572 0.071,-0.622 0.113,-0.66C0.153,-0.698 0.21,-0.717 0.283,-0.718C0.372,-0.716 0.449,-0.691 0.514,-0.644L0.454,-0.555C0.401,-0.59 0.342,-0.609 0.278,-0.61C0.245,-0.61 0.217,-0.602 0.195,-0.585C0.172,-0.568 0.16,-0.542 0.159,-0.508C0.159,-0.487 0.167,-0.469 0.183,-0.452C0.199,-0.435 0.225,-0.424 0.26,-0.417C0.279,-0.414 0.306,-0.41 0.34,-0.406C0.407,-0.397 0.456,-0.373 0.488,-0.334C0.519,-0.296 0.535,-0.252 0.535,-0.201C0.532,-0.065 0.448,0.004 0.285,0.006C0.18,0.006 0.089,-0.027 0.013,-0.092L0.084,-0.173Z" style="fill-rule:nonzero;"/>
                    </g>
                    <g transform="matrix(1.058,-0.0924583,-0.0519775,1.11983,-39.8004,66.0465)">
                        <path d="M1135.29,271.097L1178.59,431.431L1194.09,427.625L1150.4,265.894L1135.29,271.097Z"/>
                    </g>
                </g>
            </g>
            <g id="DOG">
                <g>
                    <g>
                        <path d="M1644.95,1155.83C1642.34,1152.97 1638.86,1151.38 1636.03,1153.24C1626.09,1159.77 1619.31,1166.74 1609.56,1173.53C1579.42,1194.53 1537.14,1200.38 1518.45,1234.83C1499.5,1269.73 1498.54,1312.5 1481.68,1348.77C1458.97,1397.65 1426.46,1441.02 1402.38,1489.18C1372.56,1548.79 1326.12,1679.51 1326.12,1679.51C1311.12,1679.29 1237.15,1688.94 1192.18,1695.88C1190.47,1696.14 1189.26,1697.68 1189.39,1699.4C1189.52,1701.13 1190.96,1702.46 1192.69,1702.46C1298.71,1702.46 1609.58,1702.46 1681.9,1702.46C1685.59,1702.46 1689,1700.49 1690.85,1697.3C1692.7,1694.11 1692.72,1690.17 1690.88,1686.97C1690.88,1686.97 1690.88,1686.97 1690.88,1686.97C1681.62,1670.78 1665.59,1661.29 1647.74,1656.87C1634.01,1653.47 1620.76,1655.14 1606.93,1656.31C1606.41,1656.35 1605.75,1656.44 1605.35,1656.03C1605.25,1655.93 1605.11,1655.75 1605.05,1655.63C1601.38,1648.01 1603.34,1604.75 1603.46,1595.02C1603.97,1554.48 1605.78,1513.82 1609.26,1473.42C1610.38,1460.45 1612.7,1423.16 1612.7,1423.16C1612.7,1423.16 1643.88,1418.87 1652.83,1416.84C1674.87,1411.86 1692.87,1397.59 1705.47,1379.03C1724.16,1351.5 1725.37,1314.11 1733.83,1282.79C1740.9,1256.57 1754.13,1236.14 1765.44,1212.09C1771.31,1199.61 1769.24,1181.17 1755.67,1174.46C1742.4,1167.89 1728.49,1181.62 1720.14,1190.4C1693.57,1218.38 1692.21,1256.88 1669.51,1284.63C1653.41,1304.3 1620.93,1307.91 1620.93,1307.91C1620.93,1307.91 1619.93,1283.92 1620.93,1277.26C1625.94,1243.93 1644.73,1222.74 1652.38,1192.07C1654.59,1183.19 1653.34,1164.99 1644.95,1155.83Z" style="fill:rgb(221,97,64);"/>
                        <path d="M1570.1,1436.99C1584.56,1429.6 1612.7,1423.16 1612.7,1423.16C1612.7,1423.16 1611.96,1435.1 1611.11,1447.81C1600.26,1443.88 1586.66,1442.72 1571.64,1442.97C1570.18,1442.99 1568.89,1442 1568.53,1440.59C1568.16,1439.17 1568.81,1437.68 1570.1,1436.99Z"/>
                    </g>
                    <path d="M1584.44,1200.41L1590.86,1205.14C1592.64,1206.45 1595.15,1206.07 1596.46,1204.29C1597.77,1202.52 1597.39,1200.01 1595.61,1198.7L1589.19,1193.97C1587.41,1192.66 1584.91,1193.04 1583.6,1194.81C1582.29,1196.59 1582.66,1199.1 1584.44,1200.41Z"/>
                </g>
                <path d="M1604.5,1654.08C1604.23,1653.66 1604.04,1653.19 1603.93,1652.67C1595.61,1610.37 1584.47,1581.42 1571.86,1562.21C1559.77,1543.79 1546.42,1534.56 1533.06,1531.28C1506.11,1524.65 1479.6,1541.83 1464.85,1553.84C1458.13,1559.3 1453.05,1564.64 1453.05,1564.64L1453.05,1564.64C1452.28,1565.59 1451.08,1566.17 1449.76,1566.11C1447.56,1566 1445.85,1564.12 1445.96,1561.92C1445.96,1561.86 1445.87,1560.65 1447.13,1559.26C1447.98,1558.33 1452.58,1553.51 1459.8,1547.63C1476,1534.43 1505.35,1516.23 1534.97,1523.51C1549.9,1527.18 1565.03,1537.22 1578.55,1557.82C1587.54,1571.51 1595.86,1589.96 1602.98,1614.45C1602.69,1629.2 1602.66,1647.32 1604.5,1654.08ZM1535.04,1220.56C1535.04,1220.56 1522.08,1253.12 1514.09,1273.22C1509.3,1285.24 1514.3,1298.94 1525.69,1305.07C1530.88,1307.88 1536.14,1309.96 1541.46,1311.27C1548.68,1313.07 1556.33,1311.43 1562.19,1306.85C1568.06,1302.26 1571.48,1295.23 1571.48,1287.78C1571.48,1262.57 1571.48,1222.03 1571.48,1222.03C1571.48,1219.83 1569.69,1218.03 1567.48,1218.03C1565.28,1218.03 1563.48,1219.83 1563.48,1222.03C1563.48,1222.03 1563.48,1262.57 1563.48,1287.78C1563.48,1292.77 1561.19,1297.47 1557.26,1300.54C1553.34,1303.62 1548.22,1304.71 1543.38,1303.51C1538.69,1302.35 1534.07,1300.51 1529.49,1298.03C1521.66,1293.82 1518.24,1284.42 1521.52,1276.18C1529.52,1256.08 1542.48,1223.51 1542.48,1223.51C1543.29,1221.46 1542.29,1219.13 1540.24,1218.32C1538.18,1217.5 1535.86,1218.5 1535.04,1220.56ZM1620.67,1299.92C1620.79,1304.51 1620.93,1307.91 1620.93,1307.91C1620.93,1307.91 1621.57,1307.84 1622.72,1307.67C1617.78,1308.68 1613.21,1309.11 1608.92,1309.07C1606.71,1309.05 1604.94,1307.24 1604.96,1305.04C1604.98,1302.83 1606.78,1301.05 1608.99,1301.07C1612.63,1301.1 1616.5,1300.74 1620.67,1299.92ZM1764.09,1181.92C1765.58,1184.17 1766.68,1186.69 1767.41,1189.34C1752.22,1200.34 1740.86,1217.09 1740.32,1218.08C1739.27,1220.02 1736.84,1220.74 1734.9,1219.69C1732.96,1218.64 1732.24,1216.21 1733.29,1214.27C1733.89,1213.15 1746.88,1193.98 1764.09,1181.92ZM1749.28,1172.76C1751.41,1172.88 1753.55,1173.41 1755.67,1174.46C1756.55,1174.89 1757.38,1175.38 1758.17,1175.91C1751.71,1180.83 1738.58,1192.03 1725.11,1210.59C1723.82,1212.37 1721.31,1212.77 1719.53,1211.47C1717.74,1210.18 1717.34,1207.67 1718.64,1205.89C1730.3,1189.82 1741.75,1179 1749.28,1172.76ZM1622.75,1163.27C1626.9,1159.87 1631.07,1156.5 1636.03,1153.24C1638.86,1151.38 1642.34,1152.97 1644.95,1155.83C1646.93,1157.99 1648.51,1160.65 1649.75,1163.58C1638.39,1175.37 1625.84,1165.93 1622.75,1163.27Z"/>
            </g>
        </g>
    </g>
    <defs>
        <linearGradient id="_Linear1" x1="0" y1="0" x2="1" y2="0" gradientUnits="userSpaceOnUse" gradientTransform="matrix(986.951,-581.965,581.965,986.951,884.165,1404.93)"><stop offset="0" style="stop-color:rgb(184,216,213);stop-opacity:1"/><stop offset="0.42" style="stop-color:rgb(206,224,218);stop-opacity:1"/><stop offset="1" style="stop-color:rgb(255,240,230);stop-opacity:1"/></linearGradient>
        <linearGradient id="_Linear2" x1="0" y1="0" x2="1" y2="0" gradientUnits="userSpaceOnUse" gradientTransform="matrix(-487.042,610.288,-610.288,-487.042,559.796,705.848)"><stop offset="0" style="stop-color:rgb(184,216,213);stop-opacity:1"/><stop offset="0.47" style="stop-color:rgb(204,223,218);stop-opacity:1"/><stop offset="1" style="stop-color:rgb(255,240,230);stop-opacity:1"/></linearGradient>
        <linearGradient id="_Linear3" x1="0" y1="0" x2="1" y2="0" gradientUnits="userSpaceOnUse" gradientTransform="matrix(300.786,292.904,-292.904,300.786,1992.73,834.741)"><stop offset="0" style="stop-color:rgb(255,191,47);stop-opacity:1"/><stop offset="1" style="stop-color:rgb(253,149,0);stop-opacity:1"/></linearGradient>
        <linearGradient id="_Linear4" x1="0" y1="0" x2="1" y2="0" gradientUnits="userSpaceOnUse" gradientTransform="matrix(-490.582,-330.667,330.667,-490.582,2198.49,1382.31)"><stop offset="0" style="stop-color:rgb(255,191,47);stop-opacity:1"/><stop offset="0.48" style="stop-color:rgb(254,180,34);stop-opacity:1"/><stop offset="1" style="stop-color:rgb(253,149,0);stop-opacity:1"/></linearGradient>
    </defs>
</svg>
